<?xml version="1.0" standalone="no"?>
<!DOCTYPE svg PUBLIC "-//W3C//DTD SVG 1.1//EN" "http://www.w3.org/Graphics/SVG/1.1/DTD/svg11.dtd" >
<svg xmlns="http://www.w3.org/2000/svg">
<metadata></metadata>
<defs>
<font id="novecento_wide_bookbold" horiz-adv-x="1544" >
<font-face units-per-em="2048" ascent="1741" descent="-307" />
<missing-glyph horiz-adv-x="512" />
<glyph horiz-adv-x="2048" />
<glyph horiz-adv-x="2048" />
<glyph unicode="&#xd;" horiz-adv-x="2048" />
<glyph unicode=" "  horiz-adv-x="512" />
<glyph unicode="&#x09;" horiz-adv-x="512" />
<glyph unicode="&#xa0;" horiz-adv-x="512" />
<glyph unicode="!" horiz-adv-x="663" d="M160 0v322h344v-322h-344zM160 440v994h344v-994h-344z" />
<glyph unicode="&#x22;" horiz-adv-x="1234" d="M160 989v445h321v-445h-321zM754 989v445h321v-445h-321z" />
<glyph unicode="#" horiz-adv-x="1910" d="M55 270l158 299h172l145 285h-178l158 299h174l143 281h330l-137 -281h285l143 281h330l-138 -281h207l-155 -299h-199l-139 -285h196l-155 -299h-189l-133 -270h-358l139 270h-268l-133 -270h-359l139 270h-178zM733 569h273l145 285h-279z" />
<glyph unicode="$" horiz-adv-x="1257" d="M41 406l330 88q31 -90 107.5 -154t183.5 -64q88 0 134 35.5t46 91.5q0 28 -14.5 51.5t-35.5 39.5t-61 34t-73 30t-91.5 32t-97.5 35q-51 20 -88 36.5t-84 43t-79 57t-61.5 70t-44 91.5t-14.5 113q0 139 105 253t274 155v174h344v-182q137 -43 236 -140t137 -227l-332 -90 q-25 90 -95 138t-153 48q-74 0 -117.5 -31.5t-43.5 -76.5q0 -20 7 -36.5t26.5 -32t35 -26.5t52 -25.5t56.5 -22.5t69 -25t71 -25q71 -26 128 -52.5t117 -66.5t100 -85t65.5 -107t25.5 -133q0 -159 -104 -274.5t-281 -155.5v-174h-344v176q-157 38 -267.5 144.5t-168.5 269.5 z" />
<glyph unicode="%" horiz-adv-x="1802" d="M20 1036q0 180 102 297t263 117q160 0 261.5 -117t101.5 -297q0 -179 -101.5 -295t-261.5 -116q-162 0 -263.5 115.5t-101.5 295.5zM246 1036q0 -77 38.5 -130.5t100.5 -53.5q61 0 99 53.5t38 130.5q0 79 -38 133t-99 54q-62 0 -100.5 -54.5t-38.5 -132.5zM276 0 l1029 1434h221l-1028 -1434h-222zM1055 395q0 180 101.5 297t262.5 117q160 0 261.5 -117t101.5 -297q0 -179 -101.5 -295t-261.5 -116q-162 0 -263 115.5t-101 295.5zM1280 395q0 -77 38.5 -130.5t100.5 -53.5q61 0 99 53.5t38 130.5q0 79 -38 133t-99 54 q-62 0 -100.5 -54.5t-38.5 -132.5z" />
<glyph unicode="&#x26;" horiz-adv-x="1452" d="M72 426q0 118 80.5 205.5t197.5 105.5v2q-43 5 -87 26t-83.5 57t-64.5 92.5t-25 123.5q0 185 138.5 304.5t377.5 119.5q207 0 344.5 -107.5t184.5 -295.5l-289 -80q-36 102 -86.5 148.5t-143.5 46.5q-46 0 -80 -14.5t-52 -38.5t-26.5 -47.5t-8.5 -47.5q0 -69 49.5 -113.5 t148.5 -44.5h805v-268h-252v-121q0 -103 -33 -192t-100 -161t-181 -113.5t-263 -41.5q-249 0 -400 125.5t-151 329.5zM408 434q0 -72 61 -120t154 -48q126 0 190 54.5t64 177.5v102h-254q-106 0 -160.5 -45.5t-54.5 -120.5z" />
<glyph unicode="'" horiz-adv-x="641" d="M160 989v445h321v-445h-321z" />
<glyph unicode="(" horiz-adv-x="806" d="M72 700q0 123 15 232t39.5 192.5t62 156.5t75.5 124.5t87 96.5t89.5 73t90 53t82 37t71.5 25l86 -328q-193 -58 -273.5 -220.5t-80.5 -441.5t80.5 -441t273.5 -220l-86 -328q-52 17 -94.5 34t-109 56t-118 85.5t-108.5 124.5t-94.5 171t-62.5 227t-25 291z" />
<glyph unicode=")" horiz-adv-x="806" d="M37 39l86 -328q52 17 94.5 34t109 56t118 85.5t108.5 124.5t94.5 171t62.5 227t25 291q0 123 -15 232t-39.5 192.5t-62 156.5t-75.5 124.5t-87 96.5t-89.5 73t-90 53t-82 37t-71.5 25l-86 -328q193 -58 273.5 -220.5t80.5 -441.5t-80.5 -441t-273.5 -220z" />
<glyph unicode="*" horiz-adv-x="1040" d="M160 1090l65 204l187 -63v203h213v-203l190 63l66 -204l-195 -56l125 -162l-174 -129l-117 172l-114 -172l-177 127l125 164z" />
<glyph unicode="+" horiz-adv-x="1429" d="M252 586v280h313v330h299v-330h316v-280h-314v-330h-299v330h-315z" />
<glyph unicode="," horiz-adv-x="567" d="M86 -270q53 33 104.5 117.5t51.5 134.5l30 8l-30 4q-46 7 -82.5 46t-36.5 99q0 66 47.5 113t114.5 47t113 -50t46 -130q0 -94 -66.5 -202t-166.5 -187h-125z" />
<glyph unicode="-" horiz-adv-x="1247" d="M160 586v280h927v-280h-927z" />
<glyph unicode="." horiz-adv-x="567" d="M123 137q0 66 47.5 113t114.5 47q66 0 112.5 -47t46.5 -113q0 -67 -46.5 -114.5t-112.5 -47.5q-67 0 -114.5 47.5t-47.5 114.5z" />
<glyph unicode="/" horiz-adv-x="1062" d="M0 0l733 1434h330l-705 -1434h-358z" />
<glyph unicode="0" horiz-adv-x="1468" d="M72 717q0 154 46 290t129.5 237t209 159.5t276.5 58.5t277 -58.5t210 -159.5t130.5 -237t46.5 -290q0 -207 -79 -375.5t-231.5 -269.5t-353.5 -101q-151 0 -276.5 58.5t-209 160t-129.5 237.5t-46 290zM430 717q0 -120 30 -208.5t99.5 -143t173.5 -54.5q102 0 172 54 t101.5 143.5t31.5 208.5t-31.5 208t-101.5 143t-172 54q-154 0 -228.5 -110.5t-74.5 -294.5z" />
<glyph unicode="1" horiz-adv-x="962" d="M72 940l491 494h240v-1434h-344v690q0 43 2 104t3.5 98.5t0.5 37.5h-2q-1 0 -16.5 -18.5t-44.5 -51t-56 -59.5l-63 -64z" />
<glyph unicode="2" horiz-adv-x="1253" d="M106 1063q53 178 195 288.5t348 110.5q230 0 375 -133t145 -334q0 -56 -12 -107.5t-27.5 -90t-48 -80.5t-55.5 -67t-70 -62.5t-70.5 -54.5t-76.5 -54q-51 -36 -112.5 -78t-95.5 -64.5t-34 -23.5l2 -2l9 1q9 0 25.5 1t39 2t54 2.5t66 2.5t78 1.5t87.5 0.5h243v-322h-1052 v281q99 87 294 260t294 260q114 97 114 194q0 67 -50 115.5t-132 48.5q-149 0 -215 -180z" />
<glyph unicode="3" horiz-adv-x="1257" d="M72 369l311 86q26 -80 89.5 -128t156.5 -48q82 0 140 44.5t58 120.5q0 69 -56.5 112.5t-149.5 43.5h-121v268h121q89 0 135.5 41t46.5 105q0 66 -50 105.5t-132 39.5q-80 0 -133.5 -43t-86.5 -137l-307 82q48 185 194 293t355 108q239 0 377.5 -119.5t138.5 -304.5 q0 -66 -27 -123.5t-69 -94t-89 -57t-89 -22.5v-2q121 0 211 -85.5t90 -227.5q0 -198 -153 -326.5t-390 -128.5q-205 0 -366.5 113.5t-204.5 284.5z" />
<glyph unicode="4" horiz-adv-x="1347" d="M72 258v258l757 918h283v-877h154v-299h-154v-258h-324v258h-716zM461 555q2 0 26 0.5t64 1t82 0.5h155v70q0 30 0.5 65t1 66.5t1.5 63t1.5 57.5t1 45.5t0.5 31.5l1 11h-2q-1 0 -23 -30t-57 -76t-60 -75l-114 -135q-78 -93 -78 -94v-2z" />
<glyph unicode="5" horiz-adv-x="1269" d="M106 334l316 84q58 -152 215 -152q88 0 145.5 59t57.5 148q0 90 -59 147.5t-144 57.5q-146 0 -184 -103l-297 82l129 777h815v-322h-568l-4 -20q-13 -60 -23 -106t-14 -62l-4 -15l2 -2q56 33 162 33q150 0 272.5 -60t193.5 -168t71 -243q0 -214 -153.5 -356t-383.5 -142 q-106 0 -200.5 30.5t-163 81.5t-115.5 115.5t-66 135.5z" />
<glyph unicode="6" horiz-adv-x="1239" d="M72 477q0 82 17.5 157t56 150t79 135.5t105.5 147.5l276 367h371l-381 -508l2 -2q1 1 7.5 6.5t10 7.5t11.5 7t15.5 7.5t18 5.5t24.5 4t30 1q148 0 260 -71t167.5 -184.5t55.5 -250.5q0 -142 -74 -253.5t-202.5 -172t-288.5 -60.5q-155 0 -281.5 59.5t-203 176 t-76.5 270.5zM420 477q0 -91 63.5 -148t161.5 -57q100 0 162.5 58t62.5 147q0 92 -63 148.5t-162 56.5q-100 0 -162.5 -57.5t-62.5 -147.5z" />
<glyph unicode="7" horiz-adv-x="1179" d="M61 1112v322h1098v-199l-692 -1235h-369l437 768q42 74 96 160.5t87 135.5l32 50l-2 2h-14q-15 -1 -37.5 -1.5t-48.5 -1t-55 -1t-50 -0.5h-482z" />
<glyph unicode="8" horiz-adv-x="1241" d="M72 408q0 137 86 232.5t196 121.5v2q-29 6 -65 30.5t-71 63t-58 96.5t-23 121q0 165 137 276t347 111q209 0 346 -111t137 -276q0 -63 -23 -121t-58 -96.5t-71 -63t-65 -30.5v-2q110 -28 196 -123t86 -231q0 -122 -70.5 -222t-196 -158t-281.5 -59q-156 1 -282 59 t-196.5 158t-70.5 222zM399 418q0 -79 63 -129.5t159 -50.5q98 0 159.5 51t61.5 129q0 79 -62.5 129.5t-158.5 50.5q-98 0 -160 -51t-62 -129zM428 1059q0 -66 54.5 -108t138.5 -42q85 0 138.5 43t53.5 107q0 70 -54 114t-138 44q-85 0 -139 -45t-54 -113z" />
<glyph unicode="9" horiz-adv-x="1241" d="M41 971q0 147 74 259.5t202 172t289 59.5q155 0 282 -59.5t204 -176t77 -270.5q0 -280 -239 -561l-338 -395h-391l442 504l-2 2q-28 -35 -111 -35q-120 0 -215 40t-154 109t-89.5 158.5t-30.5 192.5zM373 954q0 -91 63.5 -147.5t161.5 -56.5q100 0 162.5 57.5t62.5 146.5 q0 92 -63 148.5t-162 56.5q-100 0 -162.5 -57.5t-62.5 -147.5z" />
<glyph unicode=":" horiz-adv-x="567" d="M123 137q0 66 47.5 113t114.5 47q66 0 112.5 -47t46.5 -113q0 -67 -46.5 -114.5t-112.5 -47.5q-67 0 -114.5 47.5t-47.5 114.5zM123 731q0 66 47.5 113t114.5 47q66 0 112.5 -47t46.5 -113q0 -67 -46.5 -114.5t-112.5 -47.5q-67 0 -114.5 47.5t-47.5 114.5z" />
<glyph unicode=";" horiz-adv-x="604" d="M123 -270q53 33 104.5 117.5t51.5 134.5l30 8l-30 4q-46 7 -82.5 46t-36.5 99q0 66 47.5 113t114.5 47t113 -50t46 -130q0 -94 -66.5 -202t-166.5 -187h-125zM160 731q0 66 47.5 113t114.5 47q66 0 112.5 -47t46.5 -113q0 -67 -46.5 -114.5t-112.5 -47.5q-68 0 -115 47.5 t-47 114.5z" />
<glyph unicode="&#x3c;" horiz-adv-x="1429" d="M238 752l540 -502h389l-510 502l510 499h-389z" />
<glyph unicode="=" horiz-adv-x="1429" d="M252 319v281h928v-281h-928zM252 811v281h928v-281h-928z" />
<glyph unicode="&#x3e;" horiz-adv-x="1429" d="M262 250l510 502l-510 499h389l541 -499l-541 -502h-389z" />
<glyph unicode="?" horiz-adv-x="1208" d="M72 1059q46 186 192.5 294.5t356.5 108.5q239 0 377.5 -119.5t138.5 -304.5q0 -70 -21.5 -130t-47.5 -98.5t-84.5 -84t-93 -67t-112.5 -65.5q-8 -5 -12 -7v-146h-344v267q214 130 260 164q80 59 93 114q3 14 3 31q0 53 -42.5 99t-129.5 46q-97 0 -154.5 -42.5 t-91.5 -139.5zM422 0v322h344v-322h-344z" />
<glyph unicode="@" horiz-adv-x="1644" d="M72 707q0 215 95.5 387.5t266.5 270t385 97.5q161 0 301.5 -57t239.5 -156.5t156 -240t57 -301.5q0 -59 -11 -117t-37.5 -117t-65.5 -103t-100.5 -72t-137.5 -28q-82 0 -150.5 49t-85.5 117l-2 2q-22 -57 -93.5 -106t-148.5 -49q-163 0 -261.5 112t-98.5 297 q0 186 104.5 300t276.5 114q72 0 121 -36t63 -64h2v67h217v-498q0 -69 20 -106t68 -37q119 0 119 275q0 248 -156 409.5t-397 161.5q-238 0 -393.5 -162t-155.5 -409q0 -161 70.5 -290.5t196.5 -202.5t282 -73q68 0 125.5 9t92 22t59.5 25.5t38.5 21t16.5 8.5l149 -73 q0 -6 -17.5 -24.5t-57 -46t-93 -52.5t-137 -42.5t-176.5 -17.5q-160 0 -299 55.5t-237.5 153t-154.5 234t-56 293.5zM633 698q1 -92 50.5 -136t111.5 -44q53 0 101.5 40t51.5 124v16q1 54 -14 92t-40.5 56t-49.5 25.5t-49 7.5q-62 0 -112.5 -46.5t-49.5 -134.5z" />
<glyph unicode="A" horiz-adv-x="1472" d="M0 0l573 1434h326l574 -1434h-371l-82 225h-567l-82 -225h-371zM563 526h346l-102 279q-13 35 -30.5 88.5t-28 88t-11.5 34.5h-2q-1 0 -11.5 -34.5t-27.5 -88t-30 -88.5z" />
<glyph unicode="B" horiz-adv-x="1351" d="M160 0v1434h622q189 0 312 -110t123 -269q0 -96 -55 -176t-124 -105v-2q101 -28 176.5 -128.5t75.5 -209.5q0 -191 -129.5 -312.5t-382.5 -121.5h-618zM504 289h239q85 0 136 45t51 117q0 74 -52 117.5t-135 43.5h-239v-323zM504 874h207q69 0 114 38.5t45 97.5t-45 97 t-114 38h-207v-271z" />
<glyph unicode="C" d="M72 717q0 159 58.5 298t158 237t236.5 154t290 56q209 0 381.5 -103t269.5 -278l-350 -92q-49 61 -132 97t-169 36q-176 0 -280.5 -112.5t-104.5 -292.5q0 -183 107.5 -292.5t277.5 -109.5q102 0 192.5 47t135.5 121l348 -90q-90 -193 -271.5 -307.5t-404.5 -114.5 q-204 0 -374 95.5t-269.5 267t-99.5 383.5z" />
<glyph unicode="D" horiz-adv-x="1599" d="M160 0v1434h626q204 0 373 -90t269 -256.5t100 -376.5q0 -158 -58.5 -292t-158.5 -225.5t-236 -142.5t-289 -51h-626zM504 322h282q161 0 272 105.5t111 283.5q0 179 -112 290t-271 111h-282v-790z" />
<glyph unicode="E" horiz-adv-x="1357" d="M160 0v1434h1042v-322h-698v-235h547v-302h-547v-253h710v-322h-1054z" />
<glyph unicode="F" horiz-adv-x="1253" d="M160 0v1434h1022v-322h-678v-281h526v-309h-526v-522h-344z" />
<glyph unicode="G" horiz-adv-x="1622" d="M72 717q0 159 58.5 298t158 237t236.5 154t290 56q207 0 380 -102.5t271 -278.5l-350 -92q-51 61 -133 97t-168 36q-176 0 -280.5 -112.5t-104.5 -292.5q0 -187 113.5 -298.5t292.5 -111.5q82 0 148 19.5t108.5 54t69.5 71t44 80.5v3h-377v276h670v-811h-295v47.5t0.5 34 t1 20.5t0.5 12v3h-2q-62 -66 -171.5 -106t-217.5 -40q-204 0 -374 95.5t-269.5 267t-99.5 383.5z" />
<glyph unicode="H" d="M160 0v1434h344v-555h536v555h344v-1434h-344v557h-536v-557h-344z" />
<glyph unicode="I" horiz-adv-x="663" d="M160 0v1434h344v-1434h-344z" />
<glyph unicode="J" horiz-adv-x="1390" d="M20 338l338 90q77 -135 254 -135q141 0 221 89t80 243v809h344v-797q0 -211 -82.5 -362.5t-227 -227.5t-335.5 -76q-202 0 -364 103t-228 264z" />
<glyph unicode="K" horiz-adv-x="1501" d="M160 0v1434h344v-234q0 -103 -1.5 -182t-2.5 -102t0 -23h2q1 0 15.5 16t62 65.5t110.5 112.5l348 347h422l-608 -611l612 -823h-405l-434 596l-121 -121v-475h-344z" />
<glyph unicode="L" horiz-adv-x="1222" d="M160 0v1434h344v-1112h678v-322h-1022z" />
<glyph unicode="M" horiz-adv-x="1751" d="M160 0v1434h323l269 -435q45 -73 76 -126.5t38 -66.5t8 -13h3q1 0 8 13t38 66.5t76 126.5l269 435h323v-1434h-338v350q0 149 3.5 277.5t5.5 179.5l2 51h-2q-1 0 -30 -48.5t-62.5 -106.5t-36.5 -62l-168 -287h-179l-168 287q-3 4 -36.5 62t-62.5 106.5t-30 48.5h-2l2 -51 q2 -51 5.5 -179.5t3.5 -277.5v-350h-338z" />
<glyph unicode="N" horiz-adv-x="1605" d="M160 0v1434h323l305 -410q39 -52 118.5 -162t137 -190t58.5 -80h2q1 18 1 46q-1 14 -1 30q0 48 -1 189.5t-1 248.5v328h344v-1434h-324l-293 399q-55 76 -138 192.5t-134.5 188.5t-52.5 72h-2q-1 -19 -1 -43q1 -12 1 -26q0 -41 1 -188t1 -278v-317h-344z" />
<glyph unicode="O" horiz-adv-x="1632" d="M72 717q0 159 58.5 298t158 237t236.5 154t290 56q204 0 374.5 -95t271 -266.5t100.5 -383.5q0 -159 -59 -298.5t-159.5 -237t-237.5 -154t-290 -56.5q-204 0 -374 95.5t-269.5 267t-99.5 383.5zM430 717q0 -181 106 -293.5t279 -112.5q174 0 280.5 112.5t106.5 293.5 q0 182 -106.5 293.5t-280.5 111.5q-173 0 -279 -111.5t-106 -293.5z" />
<glyph unicode="P" horiz-adv-x="1333" d="M160 0v1434h547q264 0 414.5 -131t150.5 -361t-150.5 -360.5t-414.5 -130.5h-203v-451h-344zM504 772h196q100 0 156.5 45t56.5 125t-56.5 125t-156.5 45h-196v-340z" />
<glyph unicode="Q" horiz-adv-x="1632" d="M72 717q0 159 58.5 298t158 237t236.5 154t290 56q204 0 374.5 -95t271 -266.5t100.5 -383.5q0 -274 -162.5 -473t-415.5 -254v-260h-344v262q-249 57 -408 255t-159 470zM430 717q0 -181 106 -293.5t279 -112.5q174 0 280.5 112.5t106.5 293.5q0 182 -106.5 293.5 t-280.5 111.5q-173 0 -279 -111.5t-106 -293.5z" />
<glyph unicode="R" horiz-adv-x="1392" d="M160 0v1434h534q268 0 423 -134.5t155 -357.5q0 -144 -66.5 -249.5t-191.5 -164.5l317 -528h-385l-266 467h-176v-467h-344zM504 772h237q85 0 128.5 51.5t43.5 118.5t-43.5 118.5t-128.5 51.5h-237v-340z" />
<glyph unicode="S" horiz-adv-x="1257" d="M41 406l330 88q31 -90 107.5 -154t183.5 -64q88 0 134 35.5t46 91.5q0 28 -14.5 51.5t-35.5 39.5t-61 34t-73 30t-91.5 32t-97.5 35q-51 20 -88 36.5t-84 43t-79 57t-61.5 70t-44 91.5t-14.5 113q0 171 154.5 298.5t382.5 127.5q202 0 354.5 -110.5t204.5 -282.5 l-332 -90q-25 90 -95 138t-153 48q-74 0 -117.5 -31.5t-43.5 -76.5q0 -20 7 -36.5t26.5 -32t35 -26.5t52 -25.5t56.5 -22.5t69 -25t71 -25q71 -26 128 -52.5t117 -66.5t100 -85t65.5 -107t25.5 -133q0 -198 -155 -323.5t-404 -125.5q-221 0 -377.5 115t-228.5 320z" />
<glyph unicode="T" horiz-adv-x="1251" d="M20 1112v322h1211v-322h-436v-1112h-344v1112h-431z" />
<glyph unicode="U" horiz-adv-x="1531" d="M133 637v797h344v-789q0 -181 72.5 -266.5t216.5 -85.5t216.5 85.5t72.5 266.5v789h344v-797q0 -317 -171.5 -491.5t-461.5 -174.5q-291 0 -462 174.5t-171 491.5z" />
<glyph unicode="V" horiz-adv-x="1472" d="M0 1434h377l276 -791q24 -70 44.5 -136.5t28.5 -96t9 -29.5h2q1 0 9 29.5t28.5 96t44.5 136.5l277 791h377l-551 -1434h-371z" />
<glyph unicode="W" horiz-adv-x="2152" d="M41 1434h367l176 -676q15 -57 29 -117t20.5 -87.5t7.5 -27.5h2q1 0 8.5 27.5t26 86.5t39.5 118l198 540h322l199 -540q21 -59 39 -118t25.5 -86.5t8.5 -27.5h2q1 0 7.5 27t21 88t29.5 117l176 676h366l-434 -1434h-323l-213 662q-20 62 -35.5 123t-21.5 89.5t-7 28.5h-2 l-6 -29q-6 -28 -21.5 -89t-35.5 -123l-213 -662h-324z" />
<glyph unicode="X" horiz-adv-x="1411" d="M20 0l480 731l-459 703h414l172 -281q8 -14 27.5 -50t34.5 -63.5t16 -27.5h2q1 0 15.5 27.5t34 63.5t27.5 50l172 281h414l-459 -703l480 -731h-410l-168 256q-7 12 -33.5 58t-49 85t-23.5 39h-2q-1 0 -23.5 -38.5t-49.5 -85t-34 -58.5l-168 -256h-410z" />
<glyph unicode="Y" horiz-adv-x="1480" d="M20 1434h386l260 -383q71 -105 73 -105h2q3 0 74 105l260 383h385l-549 -799v-635h-342v635z" />
<glyph unicode="Z" horiz-adv-x="1458" d="M123 0v322l639 671q22 24 55.5 54.5t55.5 49t22 19.5l-2 2h-15q-15 -1 -39 -2t-52 -2t-60 -1.5t-57 -0.5h-527v322h1192v-322l-610 -657q-27 -29 -61 -64t-53 -54t-19 -20l2 -2l6 1q7 0 18 0.5t26 1t34.5 1.5t40.5 1.5t47 1t51 0.5h518v-322h-1212z" />
<glyph unicode="[" horiz-adv-x="798" d="M160 -311v2064h618v-321h-274v-1422h274v-321h-618z" />
<glyph unicode="\" horiz-adv-x="1062" d="M0 1434l705 -1434h358l-733 1434h-330z" />
<glyph unicode="]" horiz-adv-x="798" d="M20 10v-321h619v2064h-619v-321h275v-1422h-275z" />
<glyph unicode="^" horiz-adv-x="1277" d="M160 977l479 481l479 -481l-147 -129l-332 342l-332 -342z" />
<glyph unicode="_" horiz-adv-x="1603" d="M160 0h1284v-272h-1284v272z" />
<glyph unicode="`" horiz-adv-x="657" d="M-8 1700l117 231l489 -262l-98 -180z" />
<glyph unicode="a" horiz-adv-x="1472" d="M0 0l573 1434h326l574 -1434h-371l-82 225h-567l-82 -225h-371zM563 526h346l-102 279q-13 35 -30.5 88.5t-28 88t-11.5 34.5h-2q-1 0 -11.5 -34.5t-27.5 -88t-30 -88.5z" />
<glyph unicode="b" horiz-adv-x="1351" d="M160 0v1434h622q189 0 312 -110t123 -269q0 -96 -55 -176t-124 -105v-2q101 -28 176.5 -128.5t75.5 -209.5q0 -191 -129.5 -312.5t-382.5 -121.5h-618zM504 289h239q85 0 136 45t51 117q0 74 -52 117.5t-135 43.5h-239v-323zM504 874h207q69 0 114 38.5t45 97.5t-45 97 t-114 38h-207v-271z" />
<glyph unicode="c" d="M72 717q0 159 58.5 298t158 237t236.5 154t290 56q209 0 381.5 -103t269.5 -278l-350 -92q-49 61 -132 97t-169 36q-176 0 -280.5 -112.5t-104.5 -292.5q0 -183 107.5 -292.5t277.5 -109.5q102 0 192.5 47t135.5 121l348 -90q-90 -193 -271.5 -307.5t-404.5 -114.5 q-204 0 -374 95.5t-269.5 267t-99.5 383.5z" />
<glyph unicode="d" horiz-adv-x="1599" d="M160 0v1434h626q204 0 373 -90t269 -256.5t100 -376.5q0 -158 -58.5 -292t-158.5 -225.5t-236 -142.5t-289 -51h-626zM504 322h282q161 0 272 105.5t111 283.5q0 179 -112 290t-271 111h-282v-790z" />
<glyph unicode="e" horiz-adv-x="1357" d="M160 0v1434h1042v-322h-698v-235h547v-302h-547v-253h710v-322h-1054z" />
<glyph unicode="f" horiz-adv-x="1253" d="M160 0v1434h1022v-322h-678v-281h526v-309h-526v-522h-344z" />
<glyph unicode="g" horiz-adv-x="1622" d="M72 717q0 159 58.5 298t158 237t236.5 154t290 56q207 0 380 -102.5t271 -278.5l-350 -92q-51 61 -133 97t-168 36q-176 0 -280.5 -112.5t-104.5 -292.5q0 -187 113.5 -298.5t292.5 -111.5q82 0 148 19.5t108.5 54t69.5 71t44 80.5v3h-377v276h670v-811h-295v47.5t0.5 34 t1 20.5t0.5 12v3h-2q-62 -66 -171.5 -106t-217.5 -40q-204 0 -374 95.5t-269.5 267t-99.5 383.5z" />
<glyph unicode="h" d="M160 0v1434h344v-555h536v555h344v-1434h-344v557h-536v-557h-344z" />
<glyph unicode="i" horiz-adv-x="663" d="M160 0v1434h344v-1434h-344z" />
<glyph unicode="j" horiz-adv-x="1390" d="M20 338l338 90q77 -135 254 -135q141 0 221 89t80 243v809h344v-797q0 -211 -82.5 -362.5t-227 -227.5t-335.5 -76q-202 0 -364 103t-228 264z" />
<glyph unicode="k" horiz-adv-x="1501" d="M160 0v1434h344v-234q0 -103 -1.5 -182t-2.5 -102t0 -23h2q1 0 15.5 16t62 65.5t110.5 112.5l348 347h422l-608 -611l612 -823h-405l-434 596l-121 -121v-475h-344z" />
<glyph unicode="l" horiz-adv-x="1222" d="M160 0v1434h344v-1112h678v-322h-1022z" />
<glyph unicode="m" horiz-adv-x="1751" d="M160 0v1434h323l269 -435q45 -73 76 -126.5t38 -66.5t8 -13h3q1 0 8 13t38 66.5t76 126.5l269 435h323v-1434h-338v350q0 149 3.5 277.5t5.5 179.5l2 51h-2q-1 0 -30 -48.5t-62.5 -106.5t-36.5 -62l-168 -287h-179l-168 287q-3 4 -36.5 62t-62.5 106.5t-30 48.5h-2l2 -51 q2 -51 5.5 -179.5t3.5 -277.5v-350h-338z" />
<glyph unicode="n" horiz-adv-x="1605" d="M160 0v1434h323l305 -410q39 -52 118.5 -162t137 -190t58.5 -80h2q1 18 1 46q-1 14 -1 30q0 48 -1 189.5t-1 248.5v328h344v-1434h-324l-293 399q-55 76 -138 192.5t-134.5 188.5t-52.5 72h-2q-1 -19 -1 -43q1 -12 1 -26q0 -41 1 -188t1 -278v-317h-344z" />
<glyph unicode="o" horiz-adv-x="1632" d="M72 717q0 159 58.5 298t158 237t236.5 154t290 56q204 0 374.5 -95t271 -266.5t100.5 -383.5q0 -159 -59 -298.5t-159.5 -237t-237.5 -154t-290 -56.5q-204 0 -374 95.5t-269.5 267t-99.5 383.5zM430 717q0 -181 106 -293.5t279 -112.5q174 0 280.5 112.5t106.5 293.5 q0 182 -106.5 293.5t-280.5 111.5q-173 0 -279 -111.5t-106 -293.5z" />
<glyph unicode="p" horiz-adv-x="1333" d="M160 0v1434h547q264 0 414.5 -131t150.5 -361t-150.5 -360.5t-414.5 -130.5h-203v-451h-344zM504 772h196q100 0 156.5 45t56.5 125t-56.5 125t-156.5 45h-196v-340z" />
<glyph unicode="q" horiz-adv-x="1632" d="M72 717q0 159 58.5 298t158 237t236.5 154t290 56q204 0 374.5 -95t271 -266.5t100.5 -383.5q0 -274 -162.5 -473t-415.5 -254v-260h-344v262q-249 57 -408 255t-159 470zM430 717q0 -181 106 -293.5t279 -112.5q174 0 280.5 112.5t106.5 293.5q0 182 -106.5 293.5 t-280.5 111.5q-173 0 -279 -111.5t-106 -293.5z" />
<glyph unicode="r" horiz-adv-x="1392" d="M160 0v1434h534q268 0 423 -134.5t155 -357.5q0 -144 -66.5 -249.5t-191.5 -164.5l317 -528h-385l-266 467h-176v-467h-344zM504 772h237q85 0 128.5 51.5t43.5 118.5t-43.5 118.5t-128.5 51.5h-237v-340z" />
<glyph unicode="s" horiz-adv-x="1257" d="M41 406l330 88q31 -90 107.5 -154t183.5 -64q88 0 134 35.5t46 91.5q0 28 -14.5 51.5t-35.5 39.5t-61 34t-73 30t-91.5 32t-97.5 35q-51 20 -88 36.5t-84 43t-79 57t-61.5 70t-44 91.5t-14.5 113q0 171 154.5 298.5t382.5 127.5q202 0 354.5 -110.5t204.5 -282.5 l-332 -90q-25 90 -95 138t-153 48q-74 0 -117.5 -31.5t-43.5 -76.5q0 -20 7 -36.5t26.5 -32t35 -26.5t52 -25.5t56.5 -22.5t69 -25t71 -25q71 -26 128 -52.5t117 -66.5t100 -85t65.5 -107t25.5 -133q0 -198 -155 -323.5t-404 -125.5q-221 0 -377.5 115t-228.5 320z" />
<glyph unicode="t" horiz-adv-x="1251" d="M20 1112v322h1211v-322h-436v-1112h-344v1112h-431z" />
<glyph unicode="u" horiz-adv-x="1531" d="M133 637v797h344v-789q0 -181 72.5 -266.5t216.5 -85.5t216.5 85.5t72.5 266.5v789h344v-797q0 -317 -171.5 -491.5t-461.5 -174.5q-291 0 -462 174.5t-171 491.5z" />
<glyph unicode="v" horiz-adv-x="1472" d="M0 1434h377l276 -791q24 -70 44.5 -136.5t28.5 -96t9 -29.5h2q1 0 9 29.5t28.5 96t44.5 136.5l277 791h377l-551 -1434h-371z" />
<glyph unicode="w" horiz-adv-x="2152" d="M41 1434h367l176 -676q15 -57 29 -117t20.5 -87.5t7.5 -27.5h2q1 0 8.5 27.5t26 86.5t39.5 118l198 540h322l199 -540q21 -59 39 -118t25.5 -86.5t8.5 -27.5h2q1 0 7.5 27t21 88t29.5 117l176 676h366l-434 -1434h-323l-213 662q-20 62 -35.5 123t-21.5 89.5t-7 28.5h-2 l-6 -29q-6 -28 -21.5 -89t-35.5 -123l-213 -662h-324z" />
<glyph unicode="x" horiz-adv-x="1411" d="M20 0l480 731l-459 703h414l172 -281q8 -14 27.5 -50t34.5 -63.5t16 -27.5h2q1 0 15.5 27.5t34 63.5t27.5 50l172 281h414l-459 -703l480 -731h-410l-168 256q-7 12 -33.5 58t-49 85t-23.5 39h-2q-1 0 -23.5 -38.5t-49.5 -85t-34 -58.5l-168 -256h-410z" />
<glyph unicode="y" horiz-adv-x="1480" d="M20 1434h386l260 -383q71 -105 73 -105h2q3 0 74 105l260 383h385l-549 -799v-635h-342v635z" />
<glyph unicode="z" horiz-adv-x="1458" d="M123 0v322l639 671q22 24 55.5 54.5t55.5 49t22 19.5l-2 2h-15q-15 -1 -39 -2t-52 -2t-60 -1.5t-57 -0.5h-527v322h1192v-322l-610 -657q-27 -29 -61 -64t-53 -54t-19 -20l2 -2l6 1q7 0 18 0.5t26 1t34.5 1.5t40.5 1.5t47 1t51 0.5h518v-322h-1212z" />
<glyph unicode="{" horiz-adv-x="929" d="M160 721q5 2 14 6t31.5 25.5t40 53t31.5 92.5t14 138v197q0 255 160 410t458 155v-321q-59 0 -102 -10.5t-85 -40.5t-64.5 -94t-22.5 -161v-120q0 -78 -10.5 -140.5t-25 -96.5t-31.5 -56.5t-28 -29.5t-16 -7q5 0 16 -7t28 -29.5t31.5 -56.5t25 -96.5t10.5 -140.5v-121 q0 -78 16 -135t40.5 -89t62.5 -51t73.5 -24.5t81.5 -5.5v-321q-298 0 -458 155t-160 410v197q0 77 -13.5 138t-32.5 92.5t-38.5 52.5t-32.5 27z" />
<glyph unicode="|" horiz-adv-x="589" d="M160 -152v1739h270v-1739h-270z" />
<glyph unicode="}" horiz-adv-x="929" d="M20 -35v-321q151 0 269.5 42t194.5 117.5t115.5 178.5t39.5 227v197q0 77 13.5 138t32.5 92.5t38.5 52.5t32.5 27l14 5q-5 2 -14 6t-31.5 25.5t-40 53t-31.5 92.5t-14 138v197q0 124 -39.5 227t-115.5 178.5t-194.5 117.5t-269.5 42v-321q46 0 81.5 -5.5t74 -24.5 t63 -51.5t40.5 -89.5t16 -135v-120q0 -78 10.5 -140.5t25 -96.5t31.5 -56.5t28 -29.5t16 -7q-5 0 -16 -7t-28 -29.5t-31.5 -56.5t-25 -96.5t-10.5 -140.5v-121q0 -78 -16 -135t-40.5 -89t-63 -51t-74 -24.5t-81.5 -5.5z" />
<glyph unicode="~" horiz-adv-x="1429" d="M115 590q11 80 49 140.5t92 94t110.5 50t114.5 16.5q64 0 133.5 -20t119 -43.5t102 -43.5t86.5 -20q40 0 68.5 12t42 32.5t19 40.5t5.5 42l284 -76q-9 -64 -36.5 -116.5t-64.5 -86.5t-83.5 -57t-92.5 -33t-91 -10q-82 0 -169.5 32t-158.5 63.5t-113 31.5q-41 0 -69.5 -12 t-42.5 -32t-19.5 -39.5t-5.5 -41.5z" />
<glyph unicode="&#xa2;" horiz-adv-x="1191" d="M72 707q0 196 115.5 342.5t293.5 193.5v219h275v-217q123 -29 220 -108.5t148 -192.5l-301 -78q-74 99 -200 99q-110 0 -173 -68.5t-63 -189.5t63 -189.5t173 -68.5q151 0 215 131l301 -82q-47 -123 -149 -211t-234 -119v-197h-275v199q-178 47 -293.5 194t-115.5 343z " />
<glyph unicode="&#xa3;" horiz-adv-x="1331" d="M160 0v322q83 15 108.5 59.5t16.5 142.5l-2 31h-123v268h96l-16 172q-12 121 53 229t179.5 171.5t244.5 66.5q71 2 149 -19t158.5 -65t145 -127t90.5 -192l-289 -80q-30 88 -89 136t-143 44q-79 -4 -121 -61.5t-34 -134.5l14 -140h385v-268h-360l2 -20q7 -79 -11 -136 t-55 -86l2 -2l8 1q8 0 22.5 1t34 2t46.5 2.5t57 2.5t67.5 1.5t75.5 0.5h381v-322h-1093z" />
<glyph unicode="&#xa5;" horiz-adv-x="1478" d="M20 1434h386l260 -383q71 -105 73 -105h2q3 0 74 105l260 383h385l-319 -465h178v-221h-330l-43 -62h373v-221h-408v-465h-342v465h-405v221h371l-43 62h-328v221h176z" />
<glyph unicode="&#xa8;" horiz-adv-x="911" d="M-8 1722q0 63 44.5 107.5t108.5 44.5q63 0 106.5 -44.5t43.5 -107.5t-43.5 -106t-106.5 -43q-65 0 -109 43t-44 106zM545 1722q0 63 43.5 107.5t107.5 44.5q63 0 107.5 -44.5t44.5 -107.5t-44.5 -106t-107.5 -43q-64 0 -107.5 43t-43.5 106z" />
<glyph unicode="&#xa9;" horiz-adv-x="1632" d="M72 717q0 159 58.5 298t158 237t236.5 154t290 56q204 0 374.5 -95t271 -266.5t100.5 -383.5q0 -159 -59 -298.5t-159.5 -237t-237.5 -154t-290 -56.5q-204 0 -374 95.5t-269.5 267t-99.5 383.5zM324 717q0 -222 138 -365t353 -143t354.5 143.5t139.5 364.5 q0 224 -139 368t-355 144q-215 0 -353 -144t-138 -368zM473 719q0 147 101 246.5t243 99.5q102 0 187.5 -54.5t125.5 -142.5l-192 -51q-45 57 -121 57q-66 0 -104.5 -41t-38.5 -114q0 -72 38.5 -114t104.5 -42q89 0 129 78l193 -53q-35 -96 -124.5 -155.5t-197.5 -59.5 q-142 0 -243 99.5t-101 246.5z" />
<glyph unicode="&#xab;" horiz-adv-x="1624" d="M160 721l481 -481l188 188l-309 293l307 293l-184 186zM795 721l481 -481l188 188l-309 293l307 293l-184 186z" />
<glyph unicode="&#xad;" horiz-adv-x="1247" d="M160 586v280h927v-280h-927z" />
<glyph unicode="&#xae;" horiz-adv-x="1632" d="M72 717q0 159 58.5 298t158 237t236.5 154t290 56q204 0 374.5 -95t271 -266.5t100.5 -383.5q0 -159 -59 -298.5t-159.5 -237t-237.5 -154t-290 -56.5q-204 0 -374 95.5t-269.5 267t-99.5 383.5zM324 717q0 -222 138 -365t353 -143t354.5 143.5t139.5 364.5 q0 224 -139 368t-355 144q-215 0 -353 -144t-138 -368zM565 379v680h254q127 0 200 -62.5t73 -167.5q0 -135 -119 -190l155 -260h-196l-125 229h-57v-229h-185zM750 758h94q29 0 47 19.5t18 45.5q0 27 -18 47.5t-47 20.5h-94v-133z" />
<glyph unicode="&#xb4;" horiz-adv-x="657" d="M-8 1669l489 262l117 -231l-508 -211z" />
<glyph unicode="&#xb8;" horiz-adv-x="550" d="M-8 -559l69 178h185q59 0 59 47q0 21 -16 33t-43 14h-219l98 287h186l-43 -115q91 2 157.5 -58t66.5 -159q0 -79 -35.5 -132t-89 -74t-121.5 -21h-254z" />
<glyph unicode="&#xbb;" horiz-adv-x="1624" d="M160 428l309 293l-307 293l184 186l483 -479l-481 -481zM795 428l309 293l-307 293l184 186l483 -479l-481 -481z" />
<glyph unicode="&#xd3;" horiz-adv-x="1632" d="M72 717q0 159 58.5 298t158 237t236.5 154t290 56q204 0 374.5 -95t271 -266.5t100.5 -383.5q0 -159 -59 -298.5t-159.5 -237t-237.5 -154t-290 -56.5q-204 0 -374 95.5t-269.5 267t-99.5 383.5zM430 717q0 -181 106 -293.5t279 -112.5q174 0 280.5 112.5t106.5 293.5 q0 182 -106.5 293.5t-280.5 111.5q-173 0 -279 -111.5t-106 -293.5zM569 1669l490 262l117 -231l-508 -211z" />
<glyph unicode="&#xf3;" horiz-adv-x="1632" d="M72 717q0 159 58.5 298t158 237t236.5 154t290 56q204 0 374.5 -95t271 -266.5t100.5 -383.5q0 -159 -59 -298.5t-159.5 -237t-237.5 -154t-290 -56.5q-204 0 -374 95.5t-269.5 267t-99.5 383.5zM430 717q0 -181 106 -293.5t279 -112.5q174 0 280.5 112.5t106.5 293.5 q0 182 -106.5 293.5t-280.5 111.5q-173 0 -279 -111.5t-106 -293.5zM565 1669l490 262l116 -231l-507 -211z" />
<glyph unicode="&#x100;" horiz-adv-x="1472" d="M0 0l573 1434h326l574 -1434h-371l-82 225h-567l-82 -225h-371zM389 1569v264h711v-264h-711zM563 526h346l-102 279q-13 35 -30.5 88.5t-28 88t-11.5 34.5h-2q-1 0 -11.5 -34.5t-27.5 -88t-30 -88.5z" />
<glyph unicode="&#x101;" horiz-adv-x="1472" d="M0 0l573 1434h326l574 -1434h-371l-82 225h-567l-82 -225h-371zM389 1569v264h711v-264h-711zM563 526h346l-102 279q-13 35 -30.5 88.5t-28 88t-11.5 34.5h-2q-1 0 -11.5 -34.5t-27.5 -88t-30 -88.5z" />
<glyph unicode="&#x102;" horiz-adv-x="1472" d="M0 0l573 1434h326l574 -1434h-371l-82 225h-567l-82 -225h-371zM334 1839h250q13 -45 53 -76.5t98 -31.5q56 0 97.5 32t52.5 76h245q-32 -141 -141.5 -230t-253.5 -89q-153 0 -261.5 88.5t-139.5 230.5zM563 526h346l-102 279q-13 35 -30.5 88.5t-28 88t-11.5 34.5h-2 q-1 0 -11.5 -34.5t-27.5 -88t-30 -88.5z" />
<glyph unicode="&#x103;" horiz-adv-x="1472" d="M0 0l573 1434h326l574 -1434h-371l-82 225h-567l-82 -225h-371zM334 1839h250q13 -45 53 -76.5t98 -31.5q56 0 97.5 32t52.5 76h245q-32 -141 -141.5 -230t-253.5 -89q-153 0 -261.5 88.5t-139.5 230.5zM563 526h346l-102 279q-13 35 -30.5 88.5t-28 88t-11.5 34.5h-2 q-1 0 -11.5 -34.5t-27.5 -88t-30 -88.5z" />
<glyph unicode="&#x104;" horiz-adv-x="1472" d="M0 0l573 1434h326l574 -1434h-183q-53 0 -103 -17t-88 -57t-38 -96q0 -50 36.5 -86.5t104.5 -36.5q53 0 101.5 32t74.5 85l176 -117q-55 -102 -151.5 -157.5t-202.5 -55.5q-168 0 -274.5 89.5t-106.5 246.5q0 62 25 119t61.5 95t76 62t71.5 29l-33 90h-567l-82 -225h-371 zM563 526h346l-102 279q-13 35 -30.5 88.5t-28 88t-11.5 34.5h-2q-1 0 -11.5 -34.5t-27.5 -88t-30 -88.5z" />
<glyph unicode="&#x105;" horiz-adv-x="1472" d="M0 0l573 1434h326l574 -1434h-183q-53 0 -103 -17t-88 -57t-38 -96q0 -50 36.5 -86.5t104.5 -36.5q53 0 101.5 32t74.5 85l176 -117q-55 -102 -151.5 -157.5t-202.5 -55.5q-168 0 -274.5 89.5t-106.5 246.5q0 62 25 119t61.5 95t76 62t71.5 29l-33 90h-567l-82 -225h-371 zM563 526h346l-102 279q-13 35 -30.5 88.5t-28 88t-11.5 34.5h-2q-1 0 -11.5 -34.5t-27.5 -88t-30 -88.5z" />
<glyph unicode="&#x106;" d="M72 717q0 159 58.5 298t158 237t236.5 154t290 56q209 0 381.5 -103t269.5 -278l-350 -92q-49 61 -132 97t-169 36q-176 0 -280.5 -112.5t-104.5 -292.5q0 -183 107.5 -292.5t277.5 -109.5q102 0 192.5 47t135.5 121l348 -90q-90 -193 -271.5 -307.5t-404.5 -114.5 q-204 0 -374 95.5t-269.5 267t-99.5 383.5zM557 1669l490 262l116 -231l-508 -211z" />
<glyph unicode="&#x107;" d="M72 717q0 159 58.5 298t158 237t236.5 154t290 56q209 0 381.5 -103t269.5 -278l-350 -92q-49 61 -132 97t-169 36q-176 0 -280.5 -112.5t-104.5 -292.5q0 -183 107.5 -292.5t277.5 -109.5q102 0 192.5 47t135.5 121l348 -90q-90 -193 -271.5 -307.5t-404.5 -114.5 q-204 0 -374 95.5t-269.5 267t-99.5 383.5zM557 1669l490 262l116 -231l-508 -211z" />
<glyph unicode="&#x10a;" d="M72 717q0 159 58.5 298t158 237t236.5 154t290 56q209 0 381.5 -103t269.5 -278l-350 -92q-49 61 -132 97t-169 36q-176 0 -280.5 -112.5t-104.5 -292.5q0 -183 107.5 -292.5t277.5 -109.5q102 0 192.5 47t135.5 121l348 -90q-90 -193 -271.5 -307.5t-404.5 -114.5 q-204 0 -374 95.5t-269.5 267t-99.5 383.5zM662 1722q0 63 44 107.5t107 44.5t107.5 -44.5t44.5 -107.5t-44.5 -107t-107.5 -44t-107 44t-44 107z" />
<glyph unicode="&#x10b;" d="M72 717q0 159 58.5 298t158 237t236.5 154t290 56q209 0 381.5 -103t269.5 -278l-350 -92q-49 61 -132 97t-169 36q-176 0 -280.5 -112.5t-104.5 -292.5q0 -183 107.5 -292.5t277.5 -109.5q102 0 192.5 47t135.5 121l348 -90q-90 -193 -271.5 -307.5t-404.5 -114.5 q-204 0 -374 95.5t-269.5 267t-99.5 383.5zM662 1722q0 63 44 107.5t107 44.5t107.5 -44.5t44.5 -107.5t-44.5 -107t-107.5 -44t-107 44t-44 107z" />
<glyph unicode="&#x10c;" d="M72 717q0 159 58.5 298t158 237t236.5 154t290 56q209 0 381.5 -103t269.5 -278l-350 -92q-49 61 -132 97t-169 36q-176 0 -280.5 -112.5t-104.5 -292.5q0 -183 107.5 -292.5t277.5 -109.5q102 0 192.5 47t135.5 121l348 -90q-90 -193 -271.5 -307.5t-404.5 -114.5 q-204 0 -374 95.5t-269.5 267t-99.5 383.5zM410 1823l403 -342l401 342l-163 168l-238 -197l-238 197z" />
<glyph unicode="&#x10d;" d="M72 717q0 159 58.5 298t158 237t236.5 154t290 56q209 0 381.5 -103t269.5 -278l-350 -92q-49 61 -132 97t-169 36q-176 0 -280.5 -112.5t-104.5 -292.5q0 -183 107.5 -292.5t277.5 -109.5q102 0 192.5 47t135.5 121l348 -90q-90 -193 -271.5 -307.5t-404.5 -114.5 q-204 0 -374 95.5t-269.5 267t-99.5 383.5zM410 1823l403 -342l401 342l-163 168l-238 -197l-238 197z" />
<glyph unicode="&#x10e;" horiz-adv-x="1599" d="M160 0v1434h626q204 0 373 -90t269 -256.5t100 -376.5q0 -158 -58.5 -292t-158.5 -225.5t-236 -142.5t-289 -51h-626zM387 1823l404 -342l401 342l-164 168l-237 -197l-238 197zM504 322h282q161 0 272 105.5t111 283.5q0 179 -112 290t-271 111h-282v-790z" />
<glyph unicode="&#x10f;" horiz-adv-x="1599" d="M160 0v1434h626q204 0 373 -90t269 -256.5t100 -376.5q0 -158 -58.5 -292t-158.5 -225.5t-236 -142.5t-289 -51h-626zM387 1823l404 -342l401 342l-164 168l-237 -197l-238 197zM504 322h282q161 0 272 105.5t111 283.5q0 179 -112 290t-271 111h-282v-790z" />
<glyph unicode="&#x110;" horiz-adv-x="1628" d="M72 569v310h116v555h627q153 0 289 -53t235.5 -146.5t158 -229.5t58.5 -294q0 -210 -100 -373.5t-268 -250.5t-373 -87h-627v569h-116zM532 322h283q161 0 272 105.5t111 283.5q0 179 -112 290t-271 111h-283v-233h220v-310h-220v-247z" />
<glyph unicode="&#x111;" horiz-adv-x="1628" d="M72 569v310h116v555h627q153 0 289 -53t235.5 -146.5t158 -229.5t58.5 -294q0 -210 -100 -373.5t-268 -250.5t-373 -87h-627v569h-116zM532 322h283q161 0 272 105.5t111 283.5q0 179 -112 290t-271 111h-283v-233h220v-310h-220v-247z" />
<glyph unicode="&#x112;" horiz-adv-x="1357" d="M160 0v1434h1042v-322h-698v-235h547v-302h-547v-253h710v-322h-1054zM367 1569v264h710v-264h-710z" />
<glyph unicode="&#x113;" horiz-adv-x="1357" d="M160 0v1434h1042v-322h-698v-235h547v-302h-547v-253h710v-322h-1054zM367 1569v264h710v-264h-710z" />
<glyph unicode="&#x116;" horiz-adv-x="1357" d="M160 0v1434h1042v-322h-698v-235h547v-302h-547v-253h710v-322h-1054zM561 1722q0 63 44.5 107.5t107.5 44.5t107 -44.5t44 -107.5t-44 -107t-107 -44t-107.5 44t-44.5 107z" />
<glyph unicode="&#x117;" horiz-adv-x="1357" d="M160 0v1434h1042v-322h-698v-235h547v-302h-547v-253h710v-322h-1054zM561 1722q0 63 44.5 107.5t107.5 44.5t107 -44.5t44 -107.5t-44 -107t-107 -44t-107.5 44t-44.5 107z" />
<glyph unicode="&#x118;" horiz-adv-x="1357" d="M160 0v1434h1042v-322h-698v-235h547v-302h-547v-253h710v-322h-258q-53 0 -103 -17t-88 -57t-38 -96q0 -50 36.5 -86.5t104.5 -36.5q53 0 101.5 32t74.5 85l177 -117q-55 -102 -152 -157.5t-203 -55.5q-168 0 -274.5 89.5t-106.5 246.5q0 91 52 170h-377z" />
<glyph unicode="&#x119;" horiz-adv-x="1357" d="M160 0v1434h1042v-322h-698v-235h547v-302h-547v-253h710v-322h-241q-53 0 -103.5 -17t-88.5 -57t-38 -96q0 -50 37 -86.5t105 -36.5q53 0 101.5 32t74.5 85l176 -117q-55 -102 -151.5 -157.5t-202.5 -55.5q-168 0 -274.5 89.5t-106.5 246.5q0 93 51 170h-393z" />
<glyph unicode="&#x11a;" horiz-adv-x="1357" d="M160 0v1434h1042v-322h-698v-235h547v-302h-547v-253h710v-322h-1054zM309 1823l166 168l238 -197l237 197l164 -168l-401 -342z" />
<glyph unicode="&#x11b;" horiz-adv-x="1357" d="M160 0v1434h1042v-322h-698v-235h547v-302h-547v-253h710v-322h-1054zM309 1823l166 168l238 -197l237 197l164 -168l-401 -342z" />
<glyph unicode="&#x11c;" horiz-adv-x="1622" d="M72 717q0 159 58.5 298t158 237t236.5 154t290 56q207 0 380 -102.5t271 -278.5l-350 -92q-51 61 -133 97t-168 36q-176 0 -280.5 -112.5t-104.5 -292.5q0 -187 113.5 -298.5t292.5 -111.5q82 0 148 19.5t108.5 54t69.5 71t44 80.5v3h-377v276h670v-811h-295v47.5t0.5 34 t1 20.5t0.5 12v3h-2q-62 -66 -171.5 -106t-217.5 -40q-204 0 -374 95.5t-269.5 267t-99.5 383.5zM403 1655l404 342l401 -342l-164 -168l-237 196l-238 -196z" />
<glyph unicode="&#x11d;" horiz-adv-x="1622" d="M72 717q0 159 58.5 298t158 237t236.5 154t290 56q207 0 380 -102.5t271 -278.5l-350 -92q-51 61 -133 97t-168 36q-176 0 -280.5 -112.5t-104.5 -292.5q0 -187 113.5 -298.5t292.5 -111.5q82 0 148 19.5t108.5 54t69.5 71t44 80.5v3h-377v276h670v-811h-295v47.5t0.5 34 t1 20.5t0.5 12v3h-2q-62 -66 -171.5 -106t-217.5 -40q-204 0 -374 95.5t-269.5 267t-99.5 383.5zM403 1655l404 342l401 -342l-164 -168l-237 196l-238 -196z" />
<glyph unicode="&#x11e;" horiz-adv-x="1622" d="M72 717q0 159 58.5 298t158 237t236.5 154t290 56q207 0 380 -102.5t271 -278.5l-350 -92q-51 61 -133 97t-168 36q-176 0 -280.5 -112.5t-104.5 -292.5q0 -187 113.5 -298.5t292.5 -111.5q82 0 148 19.5t108.5 54t69.5 71t44 80.5v3h-377v276h670v-811h-295v47.5t0.5 34 t1 20.5t0.5 12v3h-2q-62 -66 -171.5 -106t-217.5 -40q-204 0 -374 95.5t-269.5 267t-99.5 383.5zM414 1839h250q13 -45 53 -76.5t98 -31.5q56 0 97.5 32t52.5 76h245q-32 -141 -141.5 -230t-253.5 -89q-153 0 -261.5 88.5t-139.5 230.5z" />
<glyph unicode="&#x11f;" horiz-adv-x="1622" d="M72 717q0 159 58.5 298t158 237t236.5 154t290 56q207 0 380 -102.5t271 -278.5l-350 -92q-51 61 -133 97t-168 36q-176 0 -280.5 -112.5t-104.5 -292.5q0 -187 113.5 -298.5t292.5 -111.5q82 0 148 19.5t108.5 54t69.5 71t44 80.5v3h-377v276h670v-811h-295v47.5t0.5 34 t1 20.5t0.5 12v3h-2q-62 -66 -171.5 -106t-217.5 -40q-204 0 -374 95.5t-269.5 267t-99.5 383.5zM414 1839h250q13 -45 53 -76.5t98 -31.5q56 0 97.5 32t52.5 76h245q-32 -141 -141.5 -230t-253.5 -89q-153 0 -261.5 88.5t-139.5 230.5z" />
<glyph unicode="&#x120;" horiz-adv-x="1622" d="M72 717q0 159 58.5 298t158 237t236.5 154t290 56q207 0 380 -102.5t271 -278.5l-350 -92q-51 61 -133 97t-168 36q-176 0 -280.5 -112.5t-104.5 -292.5q0 -187 113.5 -298.5t292.5 -111.5q82 0 148 19.5t108.5 54t69.5 71t44 80.5v3h-377v276h670v-811h-295v47.5t0.5 34 t1 20.5t0.5 12v3h-2q-62 -66 -171.5 -106t-217.5 -40q-204 0 -374 95.5t-269.5 267t-99.5 383.5zM664 1722q0 63 44 107.5t107 44.5t107.5 -44.5t44.5 -107.5t-44.5 -107t-107.5 -44t-107 44t-44 107z" />
<glyph unicode="&#x121;" horiz-adv-x="1622" d="M72 717q0 159 58.5 298t158 237t236.5 154t290 56q207 0 380 -102.5t271 -278.5l-350 -92q-51 61 -133 97t-168 36q-176 0 -280.5 -112.5t-104.5 -292.5q0 -187 113.5 -298.5t292.5 -111.5q82 0 148 19.5t108.5 54t69.5 71t44 80.5v3h-377v276h670v-811h-295v47.5t0.5 34 t1 20.5t0.5 12v3h-2q-62 -66 -171.5 -106t-217.5 -40q-204 0 -374 95.5t-269.5 267t-99.5 383.5zM664 1722q0 63 44 107.5t107 44.5t107.5 -44.5t44.5 -107.5t-44.5 -107t-107.5 -44t-107 44t-44 107z" />
<glyph unicode="&#x122;" horiz-adv-x="1622" d="M72 717q0 159 58.5 298t158 237t236.5 154t290 56q207 0 380 -102.5t271 -278.5l-350 -92q-51 61 -133 97t-168 36q-176 0 -280.5 -112.5t-104.5 -292.5q0 -187 113.5 -298.5t292.5 -111.5q82 0 148 19.5t108.5 54t69.5 71t44 80.5v3h-377v276h670v-811h-295v47.5t0.5 34 t1 20.5t0.5 12v3h-2q-62 -66 -171.5 -106t-217.5 -40q-204 0 -374 95.5t-269.5 267t-99.5 383.5zM627 -596q48 30 94.5 106t46.5 121l29 9l-29 4q-42 5 -75.5 40.5t-33.5 90.5q0 60 43.5 102.5t104.5 42.5t103 -46t42 -118q0 -86 -60.5 -183.5t-152.5 -168.5h-112z" />
<glyph unicode="&#x123;" horiz-adv-x="1622" d="M72 717q0 159 58.5 298t158 237t236.5 154t290 56q207 0 380 -102.5t271 -278.5l-350 -92q-51 61 -133 97t-168 36q-176 0 -280.5 -112.5t-104.5 -292.5q0 -187 113.5 -298.5t292.5 -111.5q82 0 148 19.5t108.5 54t69.5 71t44 80.5v3h-377v276h670v-811h-295v47.5t0.5 34 t1 20.5t0.5 12v3h-2q-62 -66 -171.5 -106t-217.5 -40q-204 0 -374 95.5t-269.5 267t-99.5 383.5zM627 -596q48 30 94.5 106t46.5 121l29 9l-29 4q-42 5 -75.5 40.5t-33.5 90.5q0 60 43.5 102.5t104.5 42.5t103 -46t42 -118q0 -86 -60.5 -183.5t-152.5 -168.5h-112z" />
<glyph unicode="&#x124;" d="M160 0v1434h344v-555h536v555h344v-1434h-344v557h-536v-557h-344zM360 1655l404 342l401 -342l-164 -168l-237 196l-238 -196z" />
<glyph unicode="&#x125;" d="M160 0v1434h344v-555h536v555h344v-1434h-344v557h-536v-557h-344zM360 1655l404 342l401 -342l-164 -168l-237 196l-238 -196z" />
<glyph unicode="&#x126;" d="M12 1026v281h148v127h344v-127h536v127h344v-127h148v-281h-148v-1026h-344v557h-536v-557h-344v1026h-148zM504 879h536v147h-536v-147z" />
<glyph unicode="&#x127;" d="M12 1026v281h148v127h344v-127h536v127h344v-127h148v-281h-148v-1026h-344v557h-536v-557h-344v1026h-148zM504 879h536v147h-536v-147z" />
<glyph unicode="&#x12a;" horiz-adv-x="663" d="M-14 1569v264h710v-264h-710zM160 0v1434h344v-1434h-344z" />
<glyph unicode="&#x12b;" horiz-adv-x="663" d="M-14 1569v264h710v-264h-710zM160 0v1434h344v-1434h-344z" />
<glyph unicode="&#x12e;" horiz-adv-x="663" d="M-76 -170q0 62 25.5 119.5t63 96t76.5 62.5t71 29v1297h344v-1434h-109q-53 0 -103 -17t-88 -57t-38 -96q0 -50 36.5 -86.5t104.5 -36.5q53 0 101.5 32t74.5 85l176 -117q-55 -102 -151.5 -157.5t-202.5 -55.5q-168 0 -274.5 89.5t-106.5 246.5z" />
<glyph unicode="&#x12f;" horiz-adv-x="663" d="M-76 -170q0 62 25.5 119.5t63 96t76.5 62.5t71 29v1297h344v-1434h-109q-53 0 -103 -17t-88 -57t-38 -96q0 -50 36.5 -86.5t104.5 -36.5q53 0 101.5 32t74.5 85l176 -117q-55 -102 -151.5 -157.5t-202.5 -55.5q-168 0 -274.5 89.5t-106.5 246.5z" />
<glyph unicode="&#x130;" horiz-adv-x="663" d="M160 0v1434h344v-1434h-344zM180 1722q0 63 44.5 107.5t107.5 44.5t107 -44.5t44 -107.5t-44 -107t-107 -44t-107.5 44t-44.5 107z" />
<glyph unicode="&#x131;" horiz-adv-x="663" d="M160 0v1434h344v-1434h-344z" />
<glyph unicode="&#x132;" horiz-adv-x="2023" d="M160 0v1434h344v-1434h-344zM653 338l338 90q77 -135 254 -135q141 0 221 89t80 243v809h344v-797q0 -211 -82.5 -362.5t-227 -227.5t-335.5 -76q-202 0 -364 103t-228 264z" />
<glyph unicode="&#x133;" horiz-adv-x="2023" d="M160 0v1434h344v-1434h-344zM653 338l338 90q77 -135 254 -135q141 0 221 89t80 243v809h344v-797q0 -211 -82.5 -362.5t-227 -227.5t-335.5 -76q-202 0 -364 103t-228 264z" />
<glyph unicode="&#x134;" horiz-adv-x="1390" d="M20 338l338 90q77 -135 254 -135q141 0 221 89t80 243v809h344v-797q0 -211 -82.5 -362.5t-227 -227.5t-335.5 -76q-202 0 -364 103t-228 264zM676 1655l403 342l402 -342l-164 -168l-238 196l-237 -196z" />
<glyph unicode="&#x135;" horiz-adv-x="1390" d="M20 338l338 90q77 -135 254 -135q141 0 221 89t80 243v809h344v-797q0 -211 -82.5 -362.5t-227 -227.5t-335.5 -76q-202 0 -364 103t-228 264zM676 1655l403 342l402 -342l-164 -168l-238 196l-237 -196z" />
<glyph unicode="&#x136;" horiz-adv-x="1501" d="M160 0v1434h344v-234q0 -103 -1.5 -182t-2.5 -102t0 -23h2q1 0 15.5 16t62 65.5t110.5 112.5l348 347h422l-608 -611l612 -823h-405l-434 596l-121 -121v-475h-344zM578 -596q48 30 94.5 106t46.5 121l29 9l-29 4q-42 5 -75.5 40.5t-33.5 90.5q0 60 43.5 102.5 t104.5 42.5t103 -46t42 -118q0 -86 -60.5 -183.5t-152.5 -168.5h-112z" />
<glyph unicode="&#x137;" horiz-adv-x="1501" d="M160 0v1434h344v-234q0 -103 -1.5 -182t-2.5 -102t0 -23h2q1 0 15.5 16t62 65.5t110.5 112.5l348 347h422l-608 -611l612 -823h-405l-434 596l-121 -121v-475h-344zM573 -596q49 30 95.5 106t46.5 121l28 9l-28 4q-42 5 -75.5 40.5t-33.5 90.5q0 60 43.5 102.5 t104.5 42.5t103 -46t42 -118q0 -86 -60.5 -183.5t-152.5 -168.5h-113z" />
<glyph unicode="&#x139;" horiz-adv-x="1222" d="M102 1669l490 262l117 -231l-508 -211zM160 0v1434h344v-1112h678v-322h-1022z" />
<glyph unicode="&#x13a;" horiz-adv-x="1222" d="M102 1669l490 262l117 -231l-508 -211zM160 0v1434h344v-1112h678v-322h-1022z" />
<glyph unicode="&#x13b;" horiz-adv-x="1222" d="M160 0v1434h344v-1112h678v-322h-1022zM510 -596q48 30 94.5 106t46.5 121l29 9l-29 4q-42 5 -75 40.5t-33 90.5q0 60 43 102.5t104 42.5t103.5 -46t42.5 -118q0 -86 -60.5 -183.5t-152.5 -168.5h-113z" />
<glyph unicode="&#x13c;" horiz-adv-x="1222" d="M160 0v1434h344v-1112h678v-322h-1022zM383 -596q48 30 94.5 106t46.5 121l29 9l-29 4q-42 5 -75 40.5t-33 90.5q0 60 43 102.5t104 42.5t103.5 -46t42.5 -118q0 -86 -60.5 -183.5t-152.5 -168.5h-113z" />
<glyph unicode="&#x13d;" horiz-adv-x="1222" d="M160 0v1434h344v-1112h678v-322h-1022zM657 889q53 33 104.5 117.5t51.5 134.5l31 8l-31 4q-46 7 -82.5 46t-36.5 99q0 66 47.5 113t114.5 47q68 0 114 -50t46 -130q0 -94 -67 -202t-167 -187h-125z" />
<glyph unicode="&#x13e;" horiz-adv-x="1222" d="M160 0v1434h344v-1112h678v-322h-1022zM637 889q53 33 104.5 117.5t51.5 134.5l30 8l-30 4q-46 7 -82.5 46t-36.5 99q0 66 47.5 113t114.5 47t113 -50t46 -130q0 -94 -66.5 -202t-166.5 -187h-125z" />
<glyph unicode="&#x13f;" horiz-adv-x="1222" d="M160 0v1434h344v-1112h678v-322h-1022zM717 797q0 63 44 107t107 44t107.5 -44t44.5 -107t-44.5 -107.5t-107.5 -44.5t-107 44.5t-44 107.5z" />
<glyph unicode="&#x140;" horiz-adv-x="1222" d="M160 0v1434h344v-1112h678v-322h-1022zM717 797q0 63 44 107t107 44t107.5 -44t44.5 -107t-44.5 -107.5t-107.5 -44.5t-107 44.5t-44 107.5z" />
<glyph unicode="&#x141;" horiz-adv-x="1222" d="M160 0v1434h344v-512l493 256v-326l-493 -254v-276h678v-322h-1022z" />
<glyph unicode="&#x142;" horiz-adv-x="1222" d="M160 0v1434h344v-512l493 256v-326l-493 -254v-276h678v-322h-1022z" />
<glyph unicode="&#x143;" horiz-adv-x="1605" d="M160 0v1434h323l305 -410q39 -52 118.5 -162t137 -190t58.5 -80h2q1 27 0.5 75.5t-1.5 190t-1 248.5v328h344v-1434h-324l-293 399q-55 76 -138 192.5t-134.5 188.5t-52.5 72h-2q-1 -28 -0.5 -69t1.5 -188t1 -278v-317h-344zM547 1669l489 262l117 -231l-508 -211z" />
<glyph unicode="&#x144;" horiz-adv-x="1605" d="M160 0v1434h323l305 -410q39 -52 118.5 -162t137 -190t58.5 -80h2q1 27 0.5 75.5t-1.5 190t-1 248.5v328h344v-1434h-324l-293 399q-55 76 -138 192.5t-134.5 188.5t-52.5 72h-2q-1 -28 -0.5 -69t1.5 -188t1 -278v-317h-344zM547 1669l489 262l117 -231l-508 -211z" />
<glyph unicode="&#x145;" horiz-adv-x="1605" d="M160 0v1434h323l305 -410q39 -52 118.5 -162t137 -190t58.5 -80h2q1 27 0.5 75.5t-1.5 190t-1 248.5v328h344v-1434h-324l-293 399q-55 76 -138 192.5t-134.5 188.5t-52.5 72h-2q-1 -28 -0.5 -69t1.5 -188t1 -278v-317h-344zM635 -596q48 30 94.5 106t46.5 121l29 9 l-29 4q-42 5 -75 40.5t-33 90.5q0 60 43 102.5t104 42.5t103.5 -46t42.5 -118q0 -86 -60.5 -183.5t-152.5 -168.5h-113z" />
<glyph unicode="&#x146;" horiz-adv-x="1605" d="M160 0v1434h323l305 -410q39 -52 118.5 -162t137 -190t58.5 -80h2q1 27 0.5 75.5t-1.5 190t-1 248.5v328h344v-1434h-324l-293 399q-55 76 -138 192.5t-134.5 188.5t-52.5 72h-2q-1 -28 -0.5 -69t1.5 -188t1 -278v-317h-344zM635 -596q48 30 94.5 106t46.5 121l29 9 l-29 4q-42 5 -75 40.5t-33 90.5q0 60 43 102.5t104 42.5t103.5 -46t42.5 -118q0 -86 -60.5 -183.5t-152.5 -168.5h-113z" />
<glyph unicode="&#x147;" horiz-adv-x="1605" d="M160 0v1434h323l305 -410q39 -52 118.5 -162t137 -190t58.5 -80h2q1 27 0.5 75.5t-1.5 190t-1 248.5v328h344v-1434h-324l-293 399q-55 76 -138 192.5t-134.5 188.5t-52.5 72h-2q-1 -28 -0.5 -69t1.5 -188t1 -278v-317h-344zM399 1823l404 -342l401 342l-164 168 l-237 -197l-238 197z" />
<glyph unicode="&#x148;" horiz-adv-x="1605" d="M160 0v1434h323l305 -410q39 -52 118.5 -162t137 -190t58.5 -80h2q1 27 0.5 75.5t-1.5 190t-1 248.5v328h344v-1434h-324l-293 399q-55 76 -138 192.5t-134.5 188.5t-52.5 72h-2q-1 -28 -0.5 -69t1.5 -188t1 -278v-317h-344zM399 1823l404 -342l401 342l-164 168 l-237 -197l-238 197z" />
<glyph unicode="&#x14a;" horiz-adv-x="1605" d="M160 0v1434h323l305 -410q39 -52 118.5 -162t137 -190t58.5 -80h2q1 27 0.5 75.5t-1.5 190t-1 248.5v328h344v-1434q0 -220 -137 -363t-348 -143h-84v275h53q91 0 141.5 62t50.5 169l-293 399q-55 76 -138 192.5t-134.5 188.5t-52.5 72h-2q-1 -28 -0.5 -69t1.5 -188 t1 -278v-317h-344z" />
<glyph unicode="&#x14b;" horiz-adv-x="1605" d="M160 0v1434h323l305 -410q39 -52 118.5 -162t137 -190t58.5 -80h2q1 27 0.5 75.5t-1.5 190t-1 248.5v328h344v-1434q0 -220 -137 -363t-348 -143h-84v275h53q91 0 141.5 62t50.5 169l-293 399q-55 76 -138 192.5t-134.5 188.5t-52.5 72h-2q-1 -28 -0.5 -69t1.5 -188 t1 -278v-317h-344z" />
<glyph unicode="&#x14c;" horiz-adv-x="1632" d="M72 717q0 159 58.5 298t158 237t236.5 154t290 56q204 0 374.5 -95t271 -266.5t100.5 -383.5q0 -159 -59 -298.5t-159.5 -237t-237.5 -154t-290 -56.5q-204 0 -374 95.5t-269.5 267t-99.5 383.5zM430 717q0 -181 106 -293.5t279 -112.5q174 0 280.5 112.5t106.5 293.5 q0 182 -106.5 293.5t-280.5 111.5q-173 0 -279 -111.5t-106 -293.5zM479 1569v264h711v-264h-711z" />
<glyph unicode="&#x14d;" horiz-adv-x="1632" d="M72 717q0 159 58.5 298t158 237t236.5 154t290 56q204 0 374.5 -95t271 -266.5t100.5 -383.5q0 -159 -59 -298.5t-159.5 -237t-237.5 -154t-290 -56.5q-204 0 -374 95.5t-269.5 267t-99.5 383.5zM430 717q0 -181 106 -293.5t279 -112.5q174 0 280.5 112.5t106.5 293.5 q0 182 -106.5 293.5t-280.5 111.5q-173 0 -279 -111.5t-106 -293.5zM475 1569v264h711v-264h-711z" />
<glyph unicode="&#x150;" horiz-adv-x="1632" d="M72 717q0 159 58.5 298t158 237t236.5 154t290 56q204 0 374.5 -95t271 -266.5t100.5 -383.5q0 -159 -59 -298.5t-159.5 -237t-237.5 -154t-290 -56.5q-204 0 -374 95.5t-269.5 267t-99.5 383.5zM408 1669l489 262l78 -155l291 155l116 -231l-508 -211l-67 125l-301 -125 zM430 717q0 -181 106 -293.5t279 -112.5q174 0 280.5 112.5t106.5 293.5q0 182 -106.5 293.5t-280.5 111.5q-173 0 -279 -111.5t-106 -293.5z" />
<glyph unicode="&#x151;" horiz-adv-x="1632" d="M72 717q0 159 58.5 298t158 237t236.5 154t290 56q204 0 374.5 -95t271 -266.5t100.5 -383.5q0 -159 -59 -298.5t-159.5 -237t-237.5 -154t-290 -56.5q-204 0 -374 95.5t-269.5 267t-99.5 383.5zM403 1669l490 262l78 -155l291 155l116 -231l-508 -211l-67 125l-301 -125 zM430 717q0 -181 106 -293.5t279 -112.5q174 0 280.5 112.5t106.5 293.5q0 182 -106.5 293.5t-280.5 111.5q-173 0 -279 -111.5t-106 -293.5z" />
<glyph unicode="&#x152;" horiz-adv-x="2183" d="M72 717q0 208 96.5 374.5t261.5 258.5t365 92q131 0 200 -8h1033v-322h-699v-235h547v-302h-547v-253h711v-322h-1045q-63 -8 -200 -8q-200 0 -365 92t-261.5 258.5t-96.5 374.5zM430 717q0 -174 99 -279.5t266 -105.5q119 0 200 35v700q-74 35 -200 35q-167 0 -266 -105 t-99 -280z" />
<glyph unicode="&#x153;" horiz-adv-x="2183" d="M72 717q0 208 96.5 374.5t261.5 258.5t365 92q131 0 200 -8h1033v-322h-699v-235h547v-302h-547v-253h711v-322h-1045q-63 -8 -200 -8q-200 0 -365 92t-261.5 258.5t-96.5 374.5zM430 717q0 -174 99 -279.5t266 -105.5q119 0 200 35v700q-74 35 -200 35q-167 0 -266 -105 t-99 -280z" />
<glyph unicode="&#x154;" horiz-adv-x="1392" d="M160 0v1434h534q268 0 423 -134.5t155 -357.5q0 -144 -66.5 -249.5t-191.5 -164.5l317 -528h-385l-266 467h-176v-467h-344zM416 1669l489 262l117 -231l-508 -211zM504 772h237q85 0 128.5 51.5t43.5 118.5t-43.5 118.5t-128.5 51.5h-237v-340z" />
<glyph unicode="&#x155;" horiz-adv-x="1392" d="M160 0v1434h534q268 0 423 -134.5t155 -357.5q0 -144 -66.5 -249.5t-191.5 -164.5l317 -528h-385l-266 467h-176v-467h-344zM416 1669l489 262l117 -231l-508 -211zM504 772h237q85 0 128.5 51.5t43.5 118.5t-43.5 118.5t-128.5 51.5h-237v-340z" />
<glyph unicode="&#x156;" horiz-adv-x="1392" d="M160 0v1434h534q268 0 423 -134.5t155 -357.5q0 -144 -66.5 -249.5t-191.5 -164.5l317 -528h-385l-266 467h-176v-467h-344zM504 772h237q85 0 128.5 51.5t43.5 118.5t-43.5 118.5t-128.5 51.5h-237v-340zM524 -596q49 30 95.5 106t46.5 121l28 9l-28 4q-42 5 -75.5 40.5 t-33.5 90.5q0 60 43.5 102.5t104.5 42.5t103 -46t42 -118q0 -86 -60.5 -183.5t-152.5 -168.5h-113z" />
<glyph unicode="&#x157;" horiz-adv-x="1392" d="M160 0v1434h534q268 0 423 -134.5t155 -357.5q0 -144 -66.5 -249.5t-191.5 -164.5l317 -528h-385l-266 467h-176v-467h-344zM504 772h237q85 0 128.5 51.5t43.5 118.5t-43.5 118.5t-128.5 51.5h-237v-340zM541 -596q48 30 94.5 106t46.5 121l29 9l-29 4q-42 5 -75.5 40.5 t-33.5 90.5q0 60 43.5 102.5t104.5 42.5t103 -46t42 -118q0 -86 -60.5 -183.5t-152.5 -168.5h-112z" />
<glyph unicode="&#x158;" horiz-adv-x="1392" d="M160 0v1434h534q268 0 423 -134.5t155 -357.5q0 -144 -66.5 -249.5t-191.5 -164.5l317 -528h-385l-266 467h-176v-467h-344zM268 1823l166 168l238 -197l237 197l164 -168l-401 -342zM504 772h237q85 0 128.5 51.5t43.5 118.5t-43.5 118.5t-128.5 51.5h-237v-340z" />
<glyph unicode="&#x159;" horiz-adv-x="1392" d="M160 0v1434h534q268 0 423 -134.5t155 -357.5q0 -144 -66.5 -249.5t-191.5 -164.5l317 -528h-385l-266 467h-176v-467h-344zM268 1823l166 168l238 -197l237 197l164 -168l-401 -342zM504 772h237q85 0 128.5 51.5t43.5 118.5t-43.5 118.5t-128.5 51.5h-237v-340z" />
<glyph unicode="&#x15a;" horiz-adv-x="1257" d="M41 406l330 88q31 -90 107.5 -154t183.5 -64q88 0 134 35.5t46 91.5q0 28 -14.5 51.5t-35.5 39.5t-61 34t-73 30t-91.5 32t-97.5 35q-51 20 -88 36.5t-84 43t-79 57t-61.5 70t-44 91.5t-14.5 113q0 171 154.5 298.5t382.5 127.5q202 0 354.5 -110.5t204.5 -282.5 l-332 -90q-25 90 -95 138t-153 48q-74 0 -117.5 -31.5t-43.5 -76.5q0 -20 7 -36.5t26.5 -32t35 -26.5t52 -25.5t56.5 -22.5t69 -25t71 -25q71 -26 128 -52.5t117 -66.5t100 -85t65.5 -107t25.5 -133q0 -198 -155 -323.5t-404 -125.5q-221 0 -377.5 115t-228.5 320zM401 1669 l490 262l117 -231l-508 -211z" />
<glyph unicode="&#x15b;" horiz-adv-x="1257" d="M41 406l330 88q31 -90 107.5 -154t183.5 -64q88 0 134 35.5t46 91.5q0 28 -14.5 51.5t-35.5 39.5t-61 34t-73 30t-91.5 32t-97.5 35q-51 20 -88 36.5t-84 43t-79 57t-61.5 70t-44 91.5t-14.5 113q0 171 154.5 298.5t382.5 127.5q202 0 354.5 -110.5t204.5 -282.5 l-332 -90q-25 90 -95 138t-153 48q-74 0 -117.5 -31.5t-43.5 -76.5q0 -20 7 -36.5t26.5 -32t35 -26.5t52 -25.5t56.5 -22.5t69 -25t71 -25q71 -26 128 -52.5t117 -66.5t100 -85t65.5 -107t25.5 -133q0 -198 -155 -323.5t-404 -125.5q-221 0 -377.5 115t-228.5 320zM422 1669 l489 262l117 -231l-508 -211z" />
<glyph unicode="&#x15c;" horiz-adv-x="1257" d="M41 406l330 88q31 -90 107.5 -154t183.5 -64q88 0 134 35.5t46 91.5q0 28 -14.5 51.5t-35.5 39.5t-61 34t-73 30t-91.5 32t-97.5 35q-51 20 -88 36.5t-84 43t-79 57t-61.5 70t-44 91.5t-14.5 113q0 171 154.5 298.5t382.5 127.5q202 0 354.5 -110.5t204.5 -282.5 l-332 -90q-25 90 -95 138t-153 48q-74 0 -117.5 -31.5t-43.5 -76.5q0 -20 7 -36.5t26.5 -32t35 -26.5t52 -25.5t56.5 -22.5t69 -25t71 -25q71 -26 128 -52.5t117 -66.5t100 -85t65.5 -107t25.5 -133q0 -198 -155 -323.5t-404 -125.5q-221 0 -377.5 115t-228.5 320zM246 1655 l403 342l402 -342l-164 -168l-238 196l-237 -196z" />
<glyph unicode="&#x15d;" horiz-adv-x="1257" d="M41 406l330 88q31 -90 107.5 -154t183.5 -64q88 0 134 35.5t46 91.5q0 28 -14.5 51.5t-35.5 39.5t-61 34t-73 30t-91.5 32t-97.5 35q-51 20 -88 36.5t-84 43t-79 57t-61.5 70t-44 91.5t-14.5 113q0 171 154.5 298.5t382.5 127.5q202 0 354.5 -110.5t204.5 -282.5 l-332 -90q-25 90 -95 138t-153 48q-74 0 -117.5 -31.5t-43.5 -76.5q0 -20 7 -36.5t26.5 -32t35 -26.5t52 -25.5t56.5 -22.5t69 -25t71 -25q71 -26 128 -52.5t117 -66.5t100 -85t65.5 -107t25.5 -133q0 -198 -155 -323.5t-404 -125.5q-221 0 -377.5 115t-228.5 320zM246 1655 l403 342l402 -342l-164 -168l-238 196l-237 -196z" />
<glyph unicode="&#x15e;" horiz-adv-x="1257" d="M41 406l330 88q31 -90 107.5 -154t183.5 -64q88 0 134 35.5t46 91.5q0 28 -14.5 51.5t-35.5 39.5t-61 34t-73 30t-91.5 32t-97.5 35q-51 20 -88 36.5t-84 43t-79 57t-61.5 70t-44 91.5t-14.5 113q0 171 154.5 298.5t382.5 127.5q202 0 354.5 -110.5t204.5 -282.5 l-332 -90q-25 90 -95 138t-153 48q-74 0 -117.5 -31.5t-43.5 -76.5q0 -20 7 -36.5t26.5 -32t35 -26.5t52 -25.5t56.5 -22.5t69 -25t71 -25q71 -26 128 -52.5t117 -66.5t100 -85t65.5 -107t25.5 -133q0 -171 -119 -290t-319 -150l-35 -95q90 2 156.5 -58t66.5 -159 q0 -60 -20 -105t-54.5 -71t-77.5 -38.5t-93 -12.5h-254l69 178h185q59 0 59 47q0 21 -16 33t-43 14h-219l90 260q-196 19 -335 132t-206 301z" />
<glyph unicode="&#x15f;" horiz-adv-x="1257" d="M41 406l330 88q31 -90 107.5 -154t183.5 -64q88 0 134 35.5t46 91.5q0 28 -14.5 51.5t-35.5 39.5t-61 34t-73 30t-91.5 32t-97.5 35q-51 20 -88 36.5t-84 43t-79 57t-61.5 70t-44 91.5t-14.5 113q0 171 154.5 298.5t382.5 127.5q202 0 354.5 -110.5t204.5 -282.5 l-332 -90q-25 90 -95 138t-153 48q-74 0 -117.5 -31.5t-43.5 -76.5q0 -20 7 -36.5t26.5 -32t35 -26.5t52 -25.5t56.5 -22.5t69 -25t71 -25q71 -26 128 -52.5t117 -66.5t100 -85t65.5 -107t25.5 -133q0 -167 -112 -284.5t-303 -151.5l-37 -99q90 2 156.5 -58t66.5 -159 q0 -79 -35.5 -132t-89 -74t-121.5 -21h-254l70 178h184q60 0 60 47q0 21 -16.5 33t-43.5 14h-219l88 260q-202 12 -346 125.5t-213 307.5z" />
<glyph unicode="&#x160;" horiz-adv-x="1257" d="M41 406l330 88q31 -90 107.5 -154t183.5 -64q88 0 134 35.5t46 91.5q0 28 -14.5 51.5t-35.5 39.5t-61 34t-73 30t-91.5 32t-97.5 35q-51 20 -88 36.5t-84 43t-79 57t-61.5 70t-44 91.5t-14.5 113q0 171 154.5 298.5t382.5 127.5q202 0 354.5 -110.5t204.5 -282.5 l-332 -90q-25 90 -95 138t-153 48q-74 0 -117.5 -31.5t-43.5 -76.5q0 -20 7 -36.5t26.5 -32t35 -26.5t52 -25.5t56.5 -22.5t69 -25t71 -25q71 -26 128 -52.5t117 -66.5t100 -85t65.5 -107t25.5 -133q0 -198 -155 -323.5t-404 -125.5q-221 0 -377.5 115t-228.5 320zM254 1823 l403 -342l402 342l-164 168l-238 -197l-237 197z" />
<glyph unicode="&#x161;" horiz-adv-x="1257" d="M41 406l330 88q31 -90 107.5 -154t183.5 -64q88 0 134 35.5t46 91.5q0 28 -14.5 51.5t-35.5 39.5t-61 34t-73 30t-91.5 32t-97.5 35q-51 20 -88 36.5t-84 43t-79 57t-61.5 70t-44 91.5t-14.5 113q0 171 154.5 298.5t382.5 127.5q202 0 354.5 -110.5t204.5 -282.5 l-332 -90q-25 90 -95 138t-153 48q-74 0 -117.5 -31.5t-43.5 -76.5q0 -20 7 -36.5t26.5 -32t35 -26.5t52 -25.5t56.5 -22.5t69 -25t71 -25q71 -26 128 -52.5t117 -66.5t100 -85t65.5 -107t25.5 -133q0 -198 -155 -323.5t-404 -125.5q-221 0 -377.5 115t-228.5 320zM274 1823 l404 -342l401 342l-164 168l-237 -197l-238 197z" />
<glyph unicode="&#x162;" horiz-adv-x="1251" d="M20 1112v322h1211v-322h-436v-1112h-103l-43 -115q90 2 156.5 -58t66.5 -159q0 -60 -20 -105t-54.5 -71t-77.5 -38.5t-93 -12.5h-254l69 178h185q59 0 59 47q0 21 -16 33t-43 14h-219l98 287h-55v1112h-431z" />
<glyph unicode="&#x163;" horiz-adv-x="1251" d="M20 1112v322h1211v-322h-436v-1112h-103l-43 -115q90 2 156.5 -58t66.5 -159q0 -60 -20 -105t-54.5 -71t-77.5 -38.5t-93 -12.5h-254l69 178h185q59 0 59 47q0 21 -16 33t-43 14h-219l98 287h-55v1112h-431z" />
<glyph unicode="&#x164;" horiz-adv-x="1251" d="M20 1112v322h1211v-322h-436v-1112h-344v1112h-431zM256 1823l166 168l237 -197l238 197l164 -168l-402 -342z" />
<glyph unicode="&#x165;" horiz-adv-x="1251" d="M20 1112v322h1211v-322h-436v-1112h-344v1112h-431zM256 1823l166 168l237 -197l238 197l164 -168l-402 -342z" />
<glyph unicode="&#x166;" horiz-adv-x="1251" d="M20 1112v322h1211v-322h-436v-246h206v-260h-206v-606h-344v606h-207v260h207v246h-431z" />
<glyph unicode="&#x167;" horiz-adv-x="1251" d="M20 1112v322h1211v-322h-436v-246h206v-260h-206v-606h-344v606h-207v260h207v246h-431z" />
<glyph unicode="&#x16a;" horiz-adv-x="1531" d="M133 637v797h344v-789q0 -181 72.5 -266.5t216.5 -85.5t216.5 85.5t72.5 266.5v789h344v-797q0 -317 -171.5 -491.5t-461.5 -174.5q-291 0 -462 174.5t-171 491.5zM422 1569v264h711v-264h-711z" />
<glyph unicode="&#x16b;" horiz-adv-x="1531" d="M133 637v797h344v-789q0 -181 72.5 -266.5t216.5 -85.5t216.5 85.5t72.5 266.5v789h344v-797q0 -317 -171.5 -491.5t-461.5 -174.5q-291 0 -462 174.5t-171 491.5zM422 1569v264h711v-264h-711z" />
<glyph unicode="&#x16c;" horiz-adv-x="1531" d="M133 637v797h344v-789q0 -181 72.5 -266.5t216.5 -85.5t216.5 85.5t72.5 266.5v789h344v-797q0 -317 -171.5 -491.5t-461.5 -174.5q-291 0 -462 174.5t-171 491.5zM367 1839h249q13 -45 53.5 -76.5t98.5 -31.5q56 0 97.5 32t52.5 76h245q-32 -141 -141.5 -230t-253.5 -89 q-153 0 -261.5 88.5t-139.5 230.5z" />
<glyph unicode="&#x16d;" horiz-adv-x="1531" d="M133 637v797h344v-789q0 -181 72.5 -266.5t216.5 -85.5t216.5 85.5t72.5 266.5v789h344v-797q0 -317 -171.5 -491.5t-461.5 -174.5q-291 0 -462 174.5t-171 491.5zM367 1839h249q13 -45 53.5 -76.5t98.5 -31.5q56 0 97.5 32t52.5 76h245q-32 -141 -141.5 -230t-253.5 -89 q-153 0 -261.5 88.5t-139.5 230.5z" />
<glyph unicode="&#x16e;" horiz-adv-x="1531" d="M133 637v797h344v-789q0 -181 72.5 -266.5t216.5 -85.5t216.5 85.5t72.5 266.5v789h344v-797q0 -317 -171.5 -491.5t-461.5 -174.5q-291 0 -462 174.5t-171 491.5zM459 1694q0 126 91.5 216.5t217.5 90.5q127 0 217 -90.5t90 -216.5t-90 -217t-217 -91q-126 0 -217.5 91 t-91.5 217zM659 1696q0 -43 33 -76t76 -33q47 0 80 33t33 76q0 47 -33 79.5t-80 32.5q-44 0 -76.5 -33t-32.5 -79z" />
<glyph unicode="&#x16f;" horiz-adv-x="1531" d="M133 637v797h344v-789q0 -181 72.5 -266.5t216.5 -85.5t216.5 85.5t72.5 266.5v789h344v-797q0 -317 -171.5 -491.5t-461.5 -174.5q-291 0 -462 174.5t-171 491.5zM459 1694q0 126 91.5 216.5t217.5 90.5q127 0 217 -90.5t90 -216.5t-90 -217t-217 -91q-126 0 -217.5 91 t-91.5 217zM659 1696q0 -43 33 -76t76 -33q47 0 80 33t33 76q0 47 -33 79.5t-80 32.5q-44 0 -76.5 -33t-32.5 -79z" />
<glyph unicode="&#x170;" horiz-adv-x="1531" d="M133 637v797h344v-789q0 -181 72.5 -266.5t216.5 -85.5t216.5 85.5t72.5 266.5v789h344v-797q0 -317 -171.5 -491.5t-461.5 -174.5q-291 0 -462 174.5t-171 491.5zM350 1669l490 262l78 -155l290 155l117 -231l-508 -211l-67 125l-301 -125z" />
<glyph unicode="&#x171;" horiz-adv-x="1531" d="M133 637v797h344v-789q0 -181 72.5 -266.5t216.5 -85.5t216.5 85.5t72.5 266.5v789h344v-797q0 -317 -171.5 -491.5t-461.5 -174.5q-291 0 -462 174.5t-171 491.5zM350 1669l490 262l78 -155l290 155l117 -231l-508 -211l-67 125l-301 -125z" />
<glyph unicode="&#x172;" horiz-adv-x="1531" d="M133 637v797h344v-789q0 -181 72.5 -266.5t216.5 -85.5t216.5 85.5t72.5 266.5v789h344v-797q0 -240 -100.5 -400.5t-280.5 -224.5q-82 -35 -129 -78.5t-47 -111.5q0 -48 33 -81.5t90 -33.5q46 0 94 34.5t74 88.5l174 -115q-47 -96 -143.5 -158.5t-198.5 -62.5 q-152 0 -256.5 82.5t-104.5 216.5q0 100 78 182q-255 25 -402 197t-147 465z" />
<glyph unicode="&#x173;" horiz-adv-x="1531" d="M133 637v797h344v-789q0 -181 72.5 -266.5t216.5 -85.5t216.5 85.5t72.5 266.5v789h344v-797q0 -240 -100.5 -400.5t-280.5 -224.5q-82 -35 -129 -78.5t-47 -111.5q0 -48 33 -81.5t90 -33.5q46 0 94 34.5t74 88.5l174 -115q-47 -96 -143.5 -158.5t-198.5 -62.5 q-152 0 -256.5 82.5t-104.5 216.5q0 100 78 182q-255 25 -402 197t-147 465z" />
<glyph unicode="&#x174;" horiz-adv-x="2152" d="M41 1434h367l176 -676q15 -57 29 -117t20.5 -87.5t7.5 -27.5h2q1 0 8.5 27.5t26 86.5t39.5 118l198 540h322l199 -540q21 -59 39 -118t25.5 -86.5t8.5 -27.5h2q1 0 7.5 27t21 88t29.5 117l176 676h366l-434 -1434h-323l-213 662q-20 62 -35.5 123t-21.5 89.5t-7 28.5h-2 l-6 -29q-6 -28 -21.5 -89t-35.5 -123l-213 -662h-324zM666 1655l403 342l401 -342l-163 -168l-238 196l-238 -196z" />
<glyph unicode="&#x175;" horiz-adv-x="2152" d="M41 1434h367l176 -676q15 -57 29 -117t20.5 -87.5t7.5 -27.5h2q1 0 8.5 27.5t26 86.5t39.5 118l198 540h322l199 -540q21 -59 39 -118t25.5 -86.5t8.5 -27.5h2q1 0 7.5 27t21 88t29.5 117l176 676h366l-434 -1434h-323l-213 662q-20 62 -35.5 123t-21.5 89.5t-7 28.5h-2 l-6 -29q-6 -28 -21.5 -89t-35.5 -123l-213 -662h-324zM645 1655l404 342l401 -342l-164 -168l-237 196l-238 -196z" />
<glyph unicode="&#x176;" horiz-adv-x="1480" d="M20 1434h386l260 -383q71 -105 73 -105h2q3 0 74 105l260 383h385l-549 -799v-635h-342v635zM328 1655l403 342l402 -342l-164 -168l-238 196l-237 -196z" />
<glyph unicode="&#x177;" horiz-adv-x="1480" d="M20 1434h386l260 -383q71 -105 73 -105h2q3 0 74 105l260 383h385l-549 -799v-635h-342v635zM330 1655l403 342l402 -342l-164 -168l-238 196l-237 -196z" />
<glyph unicode="&#x178;" horiz-adv-x="1480" d="M20 1434h386l260 -383q71 -105 73 -105h2q3 0 74 105l260 383h385l-549 -799v-635h-342v635zM303 1722q0 63 45 107.5t109 44.5q63 0 106 -44.5t43 -107.5t-43 -106t-106 -43q-65 0 -109.5 43t-44.5 106zM856 1722q0 63 44 107.5t108 44.5q63 0 107 -44.5t44 -107.5 t-44 -106t-107 -43q-64 0 -108 43t-44 106z" />
<glyph unicode="&#x179;" horiz-adv-x="1458" d="M123 0v322l639 671q22 24 55.5 54.5t55.5 49t22 19.5l-2 2h-15q-15 -1 -39 -2t-52 -2t-60 -1.5t-57 -0.5h-527v322h1192v-322l-610 -657q-27 -29 -61 -64t-53 -54t-19 -20l2 -2l6 1q7 0 18 0.5t26 1t34.5 1.5t40.5 1.5t47 1t51 0.5h518v-322h-1212zM494 1669l489 262 l117 -231l-508 -211z" />
<glyph unicode="&#x17a;" horiz-adv-x="1458" d="M123 0v322l639 671q22 24 55.5 54.5t55.5 49t22 19.5l-2 2h-15q-15 -1 -39 -2t-52 -2t-60 -1.5t-57 -0.5h-527v322h1192v-322l-610 -657q-27 -29 -61 -64t-53 -54t-19 -20l2 -2l6 1q7 0 18 0.5t26 1t34.5 1.5t40.5 1.5t47 1t51 0.5h518v-322h-1212zM494 1669l489 262 l117 -231l-508 -211z" />
<glyph unicode="&#x17b;" horiz-adv-x="1458" d="M123 0v322l639 671q22 24 55.5 54.5t55.5 49t22 19.5l-2 2h-15q-15 -1 -39 -2t-52 -2t-60 -1.5t-57 -0.5h-527v322h1192v-322l-610 -657q-27 -29 -61 -64t-53 -54t-19 -20l2 -2l6 1q7 0 18 0.5t26 1t34.5 1.5t40.5 1.5t47 1t51 0.5h518v-322h-1212zM598 1722 q0 63 44.5 107.5t107.5 44.5t107 -44.5t44 -107.5t-44 -107t-107 -44t-107.5 44t-44.5 107z" />
<glyph unicode="&#x17c;" horiz-adv-x="1458" d="M123 0v322l639 671q22 24 55.5 54.5t55.5 49t22 19.5l-2 2h-15q-15 -1 -39 -2t-52 -2t-60 -1.5t-57 -0.5h-527v322h1192v-322l-610 -657q-27 -29 -61 -64t-53 -54t-19 -20l2 -2l6 1q7 0 18 0.5t26 1t34.5 1.5t40.5 1.5t47 1t51 0.5h518v-322h-1212zM598 1722 q0 63 44.5 107.5t107.5 44.5t107 -44.5t44 -107.5t-44 -107t-107 -44t-107.5 44t-44.5 107z" />
<glyph unicode="&#x17d;" horiz-adv-x="1458" d="M123 0v322l639 671q22 24 55.5 54.5t55.5 49t22 19.5l-2 2h-15q-15 -1 -39 -2t-52 -2t-60 -1.5t-57 -0.5h-527v322h1192v-322l-610 -657q-27 -29 -61 -64t-53 -54t-19 -20l2 -2l6 1q7 0 18 0.5t26 1t34.5 1.5t40.5 1.5t47 1t51 0.5h518v-322h-1212zM346 1823l404 -342 l401 342l-164 168l-237 -197l-238 197z" />
<glyph unicode="&#x17e;" horiz-adv-x="1458" d="M123 0v322l639 671q22 24 55.5 54.5t55.5 49t22 19.5l-2 2h-15q-15 -1 -39 -2t-52 -2t-60 -1.5t-57 -0.5h-527v322h1192v-322l-610 -657q-27 -29 -61 -64t-53 -54t-19 -20l2 -2l6 1q7 0 18 0.5t26 1t34.5 1.5t40.5 1.5t47 1t51 0.5h518v-322h-1212zM346 1823l404 -342 l401 342l-164 168l-237 -197l-238 197z" />
<glyph unicode="&#x2c6;" horiz-adv-x="772" d="M-51 1655l403 342l402 -342l-164 -168l-238 196l-237 -196z" />
<glyph unicode="&#x2da;" horiz-adv-x="598" d="M-43 1632q0 126 91.5 216.5t217.5 90.5q127 0 217 -90.5t90 -216.5t-90 -216.5t-217 -90.5q-126 0 -217.5 90.5t-91.5 216.5zM158 1634q0 -43 32.5 -75.5t75.5 -32.5q47 0 80 32.5t33 75.5q0 47 -33 80t-80 33q-43 0 -75.5 -33t-32.5 -80z" />
<glyph unicode="&#x2dc;" horiz-adv-x="1050" d="M-8 1554q0 138 91 229t232 91q53 0 103.5 -20t81.5 -43.5t68 -43.5t67 -20q40 0 65 25t25 63h266q0 -138 -91 -228.5t-232 -90.5q-51 0 -100.5 19.5t-81.5 43.5t-69.5 43.5t-68.5 19.5q-40 0 -65 -25t-25 -63h-266z" />
<glyph unicode="&#x2000;" horiz-adv-x="1000" />
<glyph unicode="&#x2001;" horiz-adv-x="2001" />
<glyph unicode="&#x2002;" horiz-adv-x="1000" />
<glyph unicode="&#x2003;" horiz-adv-x="2001" />
<glyph unicode="&#x2004;" horiz-adv-x="667" />
<glyph unicode="&#x2005;" horiz-adv-x="500" />
<glyph unicode="&#x2006;" horiz-adv-x="333" />
<glyph unicode="&#x2007;" horiz-adv-x="333" />
<glyph unicode="&#x2008;" horiz-adv-x="250" />
<glyph unicode="&#x2009;" horiz-adv-x="400" />
<glyph unicode="&#x200a;" horiz-adv-x="111" />
<glyph unicode="&#x2010;" horiz-adv-x="1247" d="M160 586v280h927v-280h-927z" />
<glyph unicode="&#x2011;" horiz-adv-x="1247" d="M160 586v280h927v-280h-927z" />
<glyph unicode="&#x2012;" horiz-adv-x="1247" d="M160 586v280h927v-280h-927z" />
<glyph unicode="&#x2013;" horiz-adv-x="1202" d="M160 565v322h882v-322h-882z" />
<glyph unicode="&#x2014;" horiz-adv-x="2121" d="M160 565v322h1802v-322h-1802z" />
<glyph unicode="&#x2018;" horiz-adv-x="677" d="M160 1069q0 94 66.5 202t166.5 187h125q-53 -33 -104.5 -117.5t-51.5 -134.5l-30 -8l30 -4q46 -7 82.5 -46t36.5 -99q0 -66 -47.5 -113t-114.5 -47t-113 50t-46 130z" />
<glyph unicode="&#x2019;" horiz-adv-x="677" d="M160 889q53 33 104 117.5t51 134.5l31 8l-31 4q-46 7 -82 46t-36 99q0 66 47 113t114 47q68 0 114 -50t46 -130q0 -94 -66.5 -202t-166.5 -187h-125z" />
<glyph unicode="&#x201a;" horiz-adv-x="677" d="M160 -270q53 33 104 117.5t51 134.5l31 8l-31 4q-46 7 -82 46t-36 99q0 66 47 113t114 47q68 0 114 -50t46 -130q0 -94 -66.5 -202t-166.5 -187h-125z" />
<glyph unicode="&#x201c;" horiz-adv-x="1148" d="M160 1069q0 94 66.5 202t166.5 187h125q-53 -33 -104.5 -117.5t-51.5 -134.5l-30 -8l30 -4q46 -7 82.5 -46t36.5 -99q0 -66 -47.5 -113t-114.5 -47t-113 50t-46 130zM631 1069q0 94 66.5 202t166.5 187h125q-53 -33 -104 -117.5t-51 -134.5l-31 -8l31 -4q46 -7 82 -46 t36 -99q0 -66 -47 -113t-114 -47q-68 0 -114 50t-46 130z" />
<glyph unicode="&#x201d;" horiz-adv-x="1148" d="M160 889q53 33 104 117.5t51 134.5l31 8l-31 4q-46 7 -82 46t-36 99q0 66 47 113t114 47q68 0 114 -50t46 -130q0 -94 -66.5 -202t-166.5 -187h-125zM631 889q53 33 104 117.5t51 134.5l31 8l-31 4q-46 7 -82 46t-36 99q0 66 47 113t114 47q68 0 114 -50t46 -130 q0 -94 -66.5 -202t-166.5 -187h-125z" />
<glyph unicode="&#x201e;" horiz-adv-x="1148" d="M160 -270q53 33 104 117.5t51 134.5l31 8l-31 4q-46 7 -82 46t-36 99q0 66 47 113t114 47q68 0 114 -50t46 -130q0 -94 -66.5 -202t-166.5 -187h-125zM631 -270q53 33 104 117.5t51 134.5l31 8l-31 4q-46 7 -82 46t-36 99q0 66 47 113t114 47q68 0 114 -50t46 -130 q0 -94 -66.5 -202t-166.5 -187h-125z" />
<glyph unicode="&#x2026;" horiz-adv-x="1597" d="M123 106q0 54 39 93t94 39t94 -39t39 -93q0 -56 -38.5 -94.5t-94.5 -38.5t-94.5 38.5t-38.5 94.5zM655 106q0 54 39 93t94 39t94.5 -39t39.5 -93q0 -55 -39 -94t-95 -39t-94.5 38.5t-38.5 94.5zM1208 106q0 54 39 93t94 39t94.5 -39t39.5 -93q0 -55 -39 -94t-95 -39 q-55 0 -94 38.5t-39 94.5z" />
<glyph unicode="&#x202f;" horiz-adv-x="400" />
<glyph unicode="&#x2039;" horiz-adv-x="989" d="M160 721l481 -481l188 188l-309 293l307 293l-184 186z" />
<glyph unicode="&#x203a;" horiz-adv-x="989" d="M160 428l309 293l-307 293l184 186l483 -479l-481 -481z" />
<glyph unicode="&#x205f;" horiz-adv-x="500" />
<glyph unicode="&#x20ac;" horiz-adv-x="1642" d="M72 465v221h106v31v31h-104v221h145q75 222 265.5 355.5t433.5 133.5q208 0 380 -102.5t267 -276.5l-348 -86q-50 62 -127.5 96.5t-169.5 34.5q-96 0 -180 -41t-142 -114h342v-221h-424q-2 -10 -2 -31t2 -31h422v-221h-338q56 -71 140 -111.5t180 -40.5q103 0 190 45.5 t135 122.5l344 -86q-89 -192 -269 -306t-402 -114q-242 0 -433 134t-266 356h-147z" />
<glyph unicode="&#x2122;" horiz-adv-x="1613" d="M20 1237v197h623v-197h-209v-469h-205v469h-209zM739 768v666h189l108 -162q22 -32 39 -65.5t24 -49.5l7 -16h2l7 16q7 16 24 49.5t39 65.5l108 162h189v-666h-197v190q0 43 2 84t3.5 58.5t0.5 17.5h-2q-2 0 -82 -117l-51 -77h-84l-51 77q-76 117 -82 117h-2 q-1 0 0.5 -17.5t3.5 -58.5t2 -84v-190h-197z" />
<glyph unicode="&#xe000;" horiz-adv-x="1433" d="M0 0v1434h1434v-1434h-1434z" />
</font>
</defs>
</svg>
